<?xml version="1.0" encoding="UTF-8" standalone="no"?>
<!DOCTYPE svg PUBLIC "-//W3C//DTD SVG 1.1//EN" "http://www.w3.org/Graphics/SVG/1.1/DTD/svg11.dtd">
<svg width="100%" height="100%" viewBox="0 0 594 594" version="1.1" xmlns="http://www.w3.org/2000/svg" xmlns:xlink="http://www.w3.org/1999/xlink" xml:space="preserve" xmlns:serif="http://www.serif.com/" style="fill-rule:evenodd;clip-rule:evenodd;stroke-linecap:round;stroke-linejoin:round;stroke-miterlimit:1.5;">
    <g transform="matrix(1,0,0,1,-27143,-2612.74)">
        <g id="Artboard1" transform="matrix(1,0,0,1,24409.7,0)">
            <rect x="0" y="0" width="3507.87" height="4960.63" style="fill:none;"/>
            <g transform="matrix(0.777401,-0.31055,-0.726194,-1.81789,3023.83,4805.85)">
                <path d="M700.386,862.066L430.76,812.588C426.627,811.83 421.831,812.649 420.057,814.417L410.416,824.025C408.642,825.793 410.558,827.844 414.692,828.602L684.318,878.08L551.31,878.08C546.812,878.08 543.16,879.641 543.16,881.565L543.16,892.02C543.16,893.944 546.812,895.506 551.31,895.506L778.703,895.506C782.217,895.506 785.214,894.552 786.358,893.218C786.423,893.162 786.485,893.105 786.543,893.046L796.184,883.438C796.243,883.38 796.297,883.321 796.348,883.262C797.822,881.988 797.372,880.403 794.951,879.313L638.278,808.836C635.179,807.441 630.016,807.386 626.756,808.711L609.036,815.915C605.776,817.24 605.646,819.448 608.745,820.842L700.386,862.066Z" style="fill:rgb(0,132,159);stroke:rgb(0,132,159);stroke-width:11.07px;"/>
            </g>
            <g transform="matrix(9.7286,0,0,9.7407,-12801,-33625)">
                <rect x="1596.77" y="3720.24" width="60.988" height="60.912" style="fill:none;"/>
            </g>
            <g transform="matrix(-0.777401,0.31055,0.726194,1.81789,3036.64,1012.42)">
                <path d="M796.348,883.262C797.822,881.988 797.372,880.403 794.951,879.313L638.278,808.836C635.179,807.441 630.016,807.386 626.756,808.711L609.036,815.915C605.776,817.24 605.646,819.448 608.745,820.842L700.386,862.066L430.76,812.588C426.627,811.83 421.831,812.649 420.057,814.417L410.416,824.025C408.642,825.793 410.558,827.844 414.692,828.602L684.318,878.08L551.31,878.08C546.812,878.08 543.16,879.641 543.16,881.565L543.16,892.02C543.16,893.944 546.812,895.506 551.31,895.506L778.703,895.506C782.217,895.506 785.214,894.552 786.358,893.218C786.423,893.162 786.485,893.105 786.543,893.046L796.184,883.438C796.243,883.38 796.297,883.321 796.348,883.262Z" style="fill:rgb(0,132,159);stroke:rgb(0,132,159);stroke-width:11.07px;"/>
            </g>
            <g transform="matrix(0.31055,0.777401,1.81789,-0.726194,1133.52,2902.73)">
                <path d="M700.386,862.066L430.76,812.588C426.627,811.83 421.831,812.649 420.057,814.417L410.416,824.025C408.642,825.793 410.558,827.844 414.692,828.602L684.318,878.08L551.31,878.08C546.812,878.08 543.16,879.641 543.16,881.565L543.16,892.02C543.16,893.944 546.812,895.506 551.31,895.506L778.703,895.506C782.217,895.506 785.214,894.552 786.358,893.218C786.423,893.162 786.485,893.105 786.543,893.046L796.184,883.438C796.243,883.38 796.297,883.321 796.348,883.262C797.822,881.988 797.372,880.403 794.951,879.313L638.278,808.836C635.179,807.441 630.016,807.386 626.756,808.711L609.036,815.915C605.776,817.24 605.646,819.448 608.745,820.842L700.386,862.066Z" style="fill:rgb(0,132,159);stroke:rgb(0,132,159);stroke-width:11.07px;"/>
            </g>
            <g transform="matrix(-0.31055,-0.777401,-1.81789,0.726194,4926.95,2915.54)">
                <path d="M786.358,893.218C786.423,893.162 786.485,893.105 786.543,893.046L796.184,883.438C796.243,883.38 796.297,883.321 796.348,883.262C797.822,881.988 797.372,880.403 794.951,879.313L638.278,808.836C635.179,807.441 630.016,807.386 626.756,808.711L609.036,815.915C605.776,817.24 605.646,819.448 608.745,820.842L700.386,862.066L430.76,812.588C426.627,811.83 421.831,812.649 420.057,814.417L410.416,824.025C408.642,825.793 410.558,827.844 414.692,828.602L684.318,878.08L551.31,878.08C546.812,878.08 543.16,879.641 543.16,881.565L543.16,892.02C543.16,893.944 546.812,895.506 551.31,895.506L778.703,895.506C782.217,895.506 785.214,894.552 786.358,893.218Z" style="fill:rgb(0,132,159);stroke:rgb(0,132,159);stroke-width:11.07px;"/>
            </g>
        </g>
    </g>
</svg>
