<?xml version="1.0" encoding="UTF-8" standalone="no"?>
<!DOCTYPE svg PUBLIC "-//W3C//DTD SVG 1.1//EN" "http://www.w3.org/Graphics/SVG/1.1/DTD/svg11.dtd">
<svg width="100%" height="100%" viewBox="0 0 594 594" version="1.1" xmlns="http://www.w3.org/2000/svg" xmlns:xlink="http://www.w3.org/1999/xlink" xml:space="preserve" xmlns:serif="http://www.serif.com/" style="fill-rule:evenodd;clip-rule:evenodd;stroke-linejoin:round;stroke-miterlimit:2;">
    <g transform="matrix(1,0,0,1,-26427.4,-2612.74)">
        <g id="Artboard1" transform="matrix(1,0,0,1,24409.7,0)">
            <rect x="0" y="0" width="3507.87" height="4960.63" style="fill:none;"/>
            <g transform="matrix(1,0,0,1,-5036.55,-950.819)">
                <path d="M7108.12,4039.56L7107.12,4056.96L7125.12,4077.17L7142.49,4078.17L7593.73,3676.04L7594.73,3658.66L7576.69,3638.43L7559.31,3637.43L7108.12,4039.56Z" style="fill:rgb(0,132,159);"/>
            </g>
            <g transform="matrix(23.5491,0,0,28.3468,-36261.1,-103467)">
                <path d="M1645.98,3748.63C1646.71,3749.78 1647.14,3751.17 1647.14,3752.66C1647.14,3756.6 1644.15,3759.79 1640.48,3759.79L1640.48,3762.09C1645.69,3762.09 1649.91,3757.87 1649.91,3752.66C1649.91,3750.57 1649.23,3748.64 1648.08,3747.07L1645.98,3748.63Z" style="fill:rgb(0,132,159);"/>
            </g>
            <g transform="matrix(23.5491,0,0,28.3468,-36261.1,-103467)">
                <path d="M1645.87,3744.91C1644.34,3743.85 1642.48,3743.23 1640.48,3743.23L1640.48,3745.53C1641.68,3745.53 1642.8,3745.87 1643.78,3746.46L1645.87,3744.91Z" style="fill:rgb(0,132,159);"/>
            </g>
            <g transform="matrix(6.12946,0,0,9.39268,-7684.54,-32340.4)">
                <path d="M1656.11,3743.94C1658.25,3746.41 1659.51,3749.42 1659.51,3752.66C1659.51,3761.1 1650.99,3767.94 1640.48,3767.94L1640.48,3761.01C1645.09,3761.01 1648.83,3757.27 1648.83,3752.66C1648.83,3751.24 1648.48,3749.91 1647.86,3748.74L1656.11,3743.94Z" style="fill:rgb(0,132,159);"/>
            </g>
            <g transform="matrix(6.12946,0,0,9.39268,-7684.54,-32340.4)">
                <path d="M1640.48,3741.56L1640.48,3737.38C1642.54,3737.38 1644.52,3737.64 1646.38,3738.13L1640.48,3741.56Z" style="fill:rgb(0,132,159);"/>
            </g>
            <g transform="matrix(9.7286,0,0,9.7407,-13516.6,-33625)">
                <rect x="1596.77" y="3720.24" width="60.988" height="60.912" style="fill:none;"/>
            </g>
            <g transform="matrix(1,0,0,1,-5036.55,-950.819)">
                <path d="M7236.14,4013.96L7300.51,4092.69L7358.48,4072L7358.49,3904.9L7236.14,4013.96Z" style="fill:rgb(0,132,159);"/>
                <path d="M7236.14,4013.96L7358.49,3904.9L7358.48,4072L7300.51,4092.69L7236.14,4013.96ZM7259.15,4015.78L7305.98,4073.04L7341.82,4060.25L7341.82,3942.08L7259.15,4015.78Z" style="fill:rgb(0,132,159);"/>
            </g>
            <g transform="matrix(1,0,0,1,-5036.55,-950.819)">
                <path d="M7110.8,3739.97L7078.14,3772.65L7078.14,3943.24L7110.8,3976.06L7157.84,3976.06L7358.56,3797.17L7358.56,3643.98L7300.56,3623.3L7205.15,3739.92L7110.8,3739.97Z" style="fill:rgb(0,132,159);"/>
            </g>
        </g>
    </g>
</svg>
