<?xml version="1.0" encoding="UTF-8" standalone="no"?>
<!DOCTYPE svg PUBLIC "-//W3C//DTD SVG 1.1//EN" "http://www.w3.org/Graphics/SVG/1.1/DTD/svg11.dtd">
<svg width="100%" height="100%" viewBox="0 0 594 594" version="1.1" xmlns="http://www.w3.org/2000/svg" xmlns:xlink="http://www.w3.org/1999/xlink" xml:space="preserve" xmlns:serif="http://www.serif.com/" style="fill-rule:evenodd;clip-rule:evenodd;stroke-linejoin:round;stroke-miterlimit:2;">
    <g transform="matrix(1,0,0,1,-26427.4,-1958.41)">
        <g id="Artboard1" transform="matrix(1,0,0,1,24409.7,0)">
            <rect x="0" y="0" width="3507.87" height="4960.63" style="fill:none;"/>
            <g transform="matrix(1,0,0,1,-5036.55,-1605.15)">
                <path d="M7108.12,4039.56L7559.31,3637.43L7576.69,3638.43L7594.73,3658.66L7593.73,3676.04L7142.49,4078.17L7125.12,4077.17L7107.12,4056.96L7108.12,4039.56ZM7124.36,4047.41L7124.15,4051.03L7132.97,4060.93L7136.56,4061.13L7577.49,3668.2L7577.69,3664.6L7568.85,3654.67L7565.25,3654.46L7124.36,4047.41Z"/>
            </g>
            <g transform="matrix(23.5491,0,0,28.3468,-36261.1,-104121)">
                <path d="M1645.98,3748.63L1648.08,3747.07C1649.23,3748.64 1649.91,3750.57 1649.91,3752.66C1649.91,3757.87 1645.69,3762.09 1640.48,3762.09L1640.48,3759.79C1644.15,3759.79 1647.14,3756.6 1647.14,3752.66C1647.14,3751.17 1646.71,3749.78 1645.98,3748.63ZM1646.85,3748.77C1647.48,3749.91 1647.84,3751.24 1647.84,3752.66C1647.84,3756.7 1644.88,3759.97 1641.19,3760.34L1641.19,3761.48C1645.71,3761.11 1649.2,3757.28 1649.2,3752.66C1649.2,3750.95 1648.73,3749.36 1647.89,3748L1646.85,3748.77Z"/>
            </g>
            <g transform="matrix(23.5491,0,0,28.3468,-36261.1,-104121)">
                <path d="M1645.87,3744.91L1643.78,3746.46C1642.8,3745.87 1641.68,3745.53 1640.48,3745.53L1640.48,3743.23C1642.48,3743.23 1644.34,3743.85 1645.87,3744.91ZM1644.75,3744.95C1643.69,3744.34 1642.48,3743.95 1641.19,3743.84L1641.19,3744.97C1642.08,3745.06 1642.94,3745.32 1643.71,3745.72L1644.75,3744.95Z"/>
            </g>
            <g transform="matrix(6.12946,0,0,9.39268,-7684.54,-32994.7)">
                <path d="M1656.11,3743.94C1658.25,3746.41 1659.51,3749.42 1659.51,3752.66C1659.51,3761.1 1650.99,3767.94 1640.48,3767.94L1640.48,3761.01C1645.09,3761.01 1648.83,3757.27 1648.83,3752.66C1648.83,3751.24 1648.48,3749.91 1647.86,3748.74L1656.11,3743.94ZM1655.19,3746.85L1650.95,3749.32C1651.34,3750.36 1651.55,3751.48 1651.55,3752.66C1651.55,3755.92 1649.89,3758.79 1647.44,3760.58C1646.2,3761.49 1644.76,3762.14 1643.2,3762.49L1643.2,3765.98C1651.03,3764.91 1656.79,3759.28 1656.79,3752.66C1656.79,3750.58 1656.22,3748.61 1655.19,3746.85Z"/>
            </g>
            <g transform="matrix(6.12946,0,0,9.39268,-7684.54,-32994.7)">
                <path d="M1640.48,3741.56L1640.48,3737.38C1642.54,3737.38 1644.52,3737.64 1646.38,3738.13L1640.48,3741.56Z"/>
            </g>
            <g transform="matrix(9.7286,0,0,9.7407,-13516.6,-34279.3)">
                <rect x="1596.77" y="3720.24" width="60.988" height="60.912" style="fill:none;"/>
            </g>
            <g transform="matrix(1,0,0,1,-5036.55,-1605.15)">
                <path d="M7236.14,4013.96L7358.49,3904.9L7358.48,4072L7300.51,4092.69L7236.14,4013.96ZM7259.15,4015.78L7305.98,4073.04L7341.82,4060.25L7341.82,3942.08L7259.15,4015.78Z"/>
            </g>
            <g transform="matrix(1,0,0,1,-5036.55,-1605.15)">
                <path d="M7110.8,3739.97L7205.15,3739.92L7300.56,3623.3L7358.56,3643.98L7358.56,3797.17L7157.84,3976.06L7110.8,3976.06L7078.14,3943.24L7078.14,3772.65L7110.8,3739.97ZM7117.71,3756.64L7094.81,3779.55L7094.81,3936.37L7117.72,3959.39L7151.49,3959.39L7341.89,3789.7L7341.89,3655.73L7306.03,3642.94L7218.05,3750.47L7205.16,3756.58L7117.71,3756.64Z"/>
            </g>
        </g>
    </g>
</svg>
