<?xml version="1.0" encoding="UTF-8" standalone="no"?>
<!DOCTYPE svg PUBLIC "-//W3C//DTD SVG 1.1//EN" "http://www.w3.org/Graphics/SVG/1.1/DTD/svg11.dtd">
<svg width="100%" height="100%" viewBox="0 0 594 594" version="1.1" xmlns="http://www.w3.org/2000/svg" xmlns:xlink="http://www.w3.org/1999/xlink" xml:space="preserve" xmlns:serif="http://www.serif.com/" style="fill-rule:evenodd;clip-rule:evenodd;stroke-linejoin:bevel;stroke-miterlimit:1.5;">
    <g transform="matrix(1,0,0,1,-24563.8,-1316.28)">
        <g id="Artboard1" transform="matrix(1,0,0,1,24409.7,0)">
            <rect x="0" y="0" width="3507.87" height="4960.63" style="fill:none;"/>
            <g transform="matrix(9.7286,0,0,9.7407,-15380.2,-34921.5)">
                <rect x="1596.77" y="3720.24" width="60.988" height="60.912" style="fill:none;"/>
            </g>
            <g transform="matrix(8.61444,0,0,9.77532,-105554,-34869.9)">
                <path d="M12335.9,3709.16L12335.9,3755.02C12335.9,3757.63 12333.5,3759.74 12330.5,3759.74L12314.4,3759.74C12311.5,3759.74 12309.1,3757.63 12309.1,3755.02L12309.1,3709.16C12309.1,3706.56 12311.5,3704.44 12314.4,3704.44L12330.5,3704.44C12333.5,3704.44 12335.9,3706.56 12335.9,3709.16Z" style="fill:none;stroke:black;stroke-width:1.81px;"/>
            </g>
            <g transform="matrix(8.61444,0,0,9.77532,-105851,-34869.9)">
                <path d="M12335.9,3709.16L12335.9,3755.02C12335.9,3757.63 12333.5,3759.74 12330.5,3759.74L12314.4,3759.74C12311.5,3759.74 12309.1,3757.63 12309.1,3755.02L12309.1,3709.16C12309.1,3706.56 12311.5,3704.44 12314.4,3704.44L12330.5,3704.44C12333.5,3704.44 12335.9,3706.56 12335.9,3709.16Z" style="fill:none;stroke:black;stroke-width:1.81px;"/>
            </g>
        </g>
    </g>
</svg>
