<?xml version="1.0" encoding="UTF-8" standalone="no"?>
<!DOCTYPE svg PUBLIC "-//W3C//DTD SVG 1.1//EN" "http://www.w3.org/Graphics/SVG/1.1/DTD/svg11.dtd">
<svg width="100%" height="100%" viewBox="0 0 594 594" version="1.1" xmlns="http://www.w3.org/2000/svg" xmlns:xlink="http://www.w3.org/1999/xlink" xml:space="preserve" xmlns:serif="http://www.serif.com/" style="fill-rule:evenodd;clip-rule:evenodd;stroke-linejoin:bevel;stroke-miterlimit:1.5;">
    <g transform="matrix(1,0,0,1,-24563.8,-2612.74)">
        <g id="Artboard1" transform="matrix(1,0,0,1,24409.7,0)">
            <rect x="0" y="0" width="3507.87" height="4960.63" style="fill:none;"/>
            <g transform="matrix(9.7286,0,0,9.7407,-15380.2,-33625)">
                <rect x="1596.77" y="3720.24" width="60.988" height="60.912" style="fill:none;"/>
            </g>
            <g transform="matrix(8.28838,0,0,8.61444,-101825,-29271.4)">
                <path d="M12318.1,3706.69L12361.2,3730.69C12368.7,3734.86 12368.6,3736.56 12361.2,3740.69L12318.1,3764.59C12310.6,3768.76 12309.1,3767.85 12309.1,3759.59L12309.1,3711.7C12309.1,3703.35 12310.6,3702.57 12318.1,3706.69Z" style="fill:rgb(0,132,159);stroke:rgb(0,132,159);stroke-width:1.97px;"/>
            </g>
        </g>
    </g>
</svg>
