<?xml version="1.0" encoding="UTF-8" standalone="no"?>
<!DOCTYPE svg PUBLIC "-//W3C//DTD SVG 1.1//EN" "http://www.w3.org/Graphics/SVG/1.1/DTD/svg11.dtd">
<svg width="100%" height="100%" viewBox="0 0 594 594" version="1.1" xmlns="http://www.w3.org/2000/svg" xmlns:xlink="http://www.w3.org/1999/xlink" xml:space="preserve" xmlns:serif="http://www.serif.com/" style="fill-rule:evenodd;clip-rule:evenodd;stroke-linejoin:round;stroke-miterlimit:2;">
    <g transform="matrix(1,0,0,1,-26427.4,-664.566)">
        <g id="Artboard1" transform="matrix(1,0,0,1,24409.7,0)">
            <rect x="0" y="0" width="3507.87" height="4960.63" style="fill:none;"/>
            <g transform="matrix(23.5491,0,0,28.3468,-36261.1,-105415)">
                <path d="M1640.48,3762.09C1645.69,3762.09 1649.91,3757.87 1649.91,3752.66C1649.91,3747.45 1645.69,3743.23 1640.48,3743.23L1640.48,3745.53C1644.15,3745.53 1647.14,3748.72 1647.14,3752.66C1647.14,3756.6 1644.15,3759.79 1640.48,3759.79L1640.48,3762.09Z" style="fill:rgb(0,132,159);"/>
            </g>
            <g transform="matrix(6.12946,0,0,9.39268,-7684.54,-34288.5)">
                <path d="M1640.48,3761.01C1645.09,3761.01 1648.83,3757.27 1648.83,3752.66C1648.83,3748.05 1645.09,3744.3 1640.48,3744.3L1640.48,3737.38C1650.99,3737.38 1659.51,3744.22 1659.51,3752.66C1659.51,3761.1 1650.99,3767.94 1640.48,3767.94L1640.48,3761.01Z" style="fill:rgb(0,132,159);"/>
            </g>
            <g transform="matrix(1,0,0,1,-5036.55,-2898.99)">
                <path d="M7101.33,3749.44L7110.8,3739.93L7157.84,3739.93L7157.85,3739.94L7205.15,3739.92L7300.56,3623.3L7358.56,3643.98L7358.56,4072.01L7300.56,4092.69L7205.15,3976.08L7157.85,3976.05L7157.84,3976.06L7110.8,3976.06L7101.33,3966.55L7078.14,3943.34L7078.14,3772.65L7101.33,3749.44Z" style="fill:rgb(0,132,159);"/>
            </g>
            <g transform="matrix(9.7286,0,0,9.7407,-13516.6,-35573.2)">
                <rect x="1596.77" y="3720.24" width="60.988" height="60.912" style="fill:none;"/>
            </g>
        </g>
    </g>
</svg>
