<?xml version="1.0" encoding="UTF-8" standalone="no"?>
<!DOCTYPE svg PUBLIC "-//W3C//DTD SVG 1.1//EN" "http://www.w3.org/Graphics/SVG/1.1/DTD/svg11.dtd">
<svg width="100%" height="100%" viewBox="0 0 594 594" version="1.1" xmlns="http://www.w3.org/2000/svg" xmlns:xlink="http://www.w3.org/1999/xlink" xml:space="preserve" xmlns:serif="http://www.serif.com/" style="fill-rule:evenodd;clip-rule:evenodd;stroke-linejoin:round;stroke-miterlimit:2;">
    <g transform="matrix(1,0,0,1,-26427.4,-1316.28)">
        <g id="Artboard1" transform="matrix(1,0,0,1,24409.7,0)">
            <rect x="0" y="0" width="3507.87" height="4960.63" style="fill:none;"/>
            <g transform="matrix(23.5491,0,0,28.3468,-36261.1,-104763)">
                <path d="M1640.48,3762.09L1640.48,3759.79C1644.15,3759.79 1647.14,3756.6 1647.14,3752.66C1647.14,3748.72 1644.15,3745.53 1640.48,3745.53L1640.48,3743.23C1645.69,3743.23 1649.91,3747.45 1649.91,3752.66C1649.91,3757.87 1645.69,3762.09 1640.48,3762.09ZM1641.19,3761.48C1645.71,3761.11 1649.2,3757.28 1649.2,3752.66C1649.2,3748.04 1645.71,3744.21 1641.19,3743.84L1641.19,3744.98C1644.88,3745.35 1647.84,3748.62 1647.84,3752.66C1647.84,3756.7 1644.88,3759.97 1641.19,3760.34L1641.19,3761.48Z"/>
            </g>
            <g transform="matrix(6.12946,0,0,9.39268,-7684.54,-33636.8)">
                <path d="M1640.48,3761.01C1645.09,3761.01 1648.83,3757.27 1648.83,3752.66C1648.83,3748.05 1645.09,3744.3 1640.48,3744.3L1640.48,3737.38C1650.99,3737.38 1659.51,3744.22 1659.51,3752.66C1659.51,3761.1 1650.99,3767.94 1640.48,3767.94L1640.48,3761.01ZM1643.2,3762.49L1643.2,3765.98C1651.03,3764.91 1656.79,3759.28 1656.79,3752.66C1656.79,3746.04 1651.03,3740.41 1643.2,3739.34L1643.2,3742.83C1644.76,3743.18 1646.2,3743.83 1647.44,3744.74C1649.89,3746.53 1651.55,3749.4 1651.55,3752.66C1651.55,3755.92 1649.89,3758.79 1647.44,3760.58C1646.2,3761.49 1644.76,3762.14 1643.2,3762.49Z"/>
            </g>
            <g transform="matrix(1,0,0,1,-5036.55,-2247.28)">
                <path d="M7142.65,3976.06L7110.8,3976.06L7101.33,3966.55L7078.14,3943.34L7078.14,3772.65L7101.33,3749.44L7110.8,3739.93L7157.84,3739.93L7157.84,3756.6L7157.83,3756.6L7146.75,3752.38C7150.3,3755.54 7153.73,3756.4 7155.82,3756.6L7117.72,3756.6L7113.12,3761.22L7094.81,3779.55L7094.81,3936.44L7113.15,3954.79L7117.72,3959.39L7157.84,3959.39L7157.84,3976.06L7153.51,3976.06C7151.28,3968.66 7148.63,3961.94 7146.76,3963.61C7142.17,3967.7 7141.44,3972.03 7142.65,3976.06ZM7157.85,3739.94L7157.85,3739.94L7205.15,3739.92L7300.56,3623.3L7358.56,3643.98L7358.56,4072.01L7300.56,4092.69L7205.15,3976.08L7157.86,3976.05L7157.86,3959.38L7205.16,3959.41L7218.05,3965.52L7306.03,4073.05L7341.89,4060.26L7341.89,3655.73L7306.03,3642.94L7218.05,3750.47L7205.16,3756.58L7157.85,3756.61L7157.83,3756.6L7157.84,3756.6L7157.85,3756.57L7157.85,3739.94ZM7157.83,3756.6L7157.83,3756.6C7157.73,3756.62 7156.99,3756.71 7155.82,3756.6L7157.83,3756.6Z"/>
            </g>
            <g transform="matrix(9.7286,0,0,9.7407,-13516.6,-34921.5)">
                <rect x="1596.77" y="3720.24" width="60.988" height="60.912" style="fill:none;"/>
            </g>
        </g>
    </g>
</svg>
