<?xml version="1.0" encoding="UTF-8" standalone="no"?>
<!DOCTYPE svg PUBLIC "-//W3C//DTD SVG 1.1//EN" "http://www.w3.org/Graphics/SVG/1.1/DTD/svg11.dtd">
<svg width="100%" height="100%" viewBox="0 0 501 501" version="1.1" xmlns="http://www.w3.org/2000/svg" xmlns:xlink="http://www.w3.org/1999/xlink" xml:space="preserve" xmlns:serif="http://www.serif.com/" style="fill-rule:evenodd;clip-rule:evenodd;stroke-linejoin:round;stroke-miterlimit:2;">
    <g transform="matrix(1,0,0,1,-17011.5,-50080.1)">
        <g id="Desktop" transform="matrix(2.2137,0,0,3.11705,16309.7,49723.7)">
            <rect x="0" y="0" width="3840" height="2160" style="fill:none;"/>
            <g transform="matrix(0.288202,0,0,0.204678,-7834.33,-8205.15)">
                <g transform="matrix(3.90569,0,0,3.90569,-82126.6,-118111)">
                    <path d="M28314.3,40748.8C28314.5,40748.1 28314.3,40747.2 28314,40746.6C28313.8,40746.1 28313.8,40745.4 28313.9,40744.9C28314.1,40744.5 28314,40744 28313.9,40743.7C28313.9,40743.6 28314,40743.1 28314.1,40742.7C28314.2,40742.1 28314.6,40741.6 28314.9,40741.5C28315.2,40741.4 28315.5,40741 28315.8,40740.8C28316.1,40740.5 28316.3,40739.4 28316.4,40738.4C28316.4,40736.7 28316.6,40736.3 28317.3,40735.3C28317.8,40734.8 28318.5,40734 28319.2,40733.5C28319.8,40733.1 28320.9,40732.2 28321.4,40731.6C28322.1,40730.9 28322.8,40730.2 28322.9,40730C28323,40729.6 28324.1,40729.1 28326.3,40728.1C28329.4,40726.9 28329.6,40726.7 28330.3,40725.9C28331,40724.9 28331.3,40724.8 28335.7,40722.9C28340,40721 28340.5,40720.8 28341.6,40720.7C28342.7,40720.8 28343.3,40720.7 28346.4,40719.3C28349.7,40717.9 28350,40717.7 28350.8,40718.1C28351.3,40718.3 28351.7,40718.3 28352,40718C28352.2,40717.8 28352.8,40717.7 28353.3,40717.8C28353.9,40717.9 28354.7,40717.8 28355.1,40717.7C28355.5,40717.5 28356,40717.6 28356.4,40717.7L28358.6,40718.6C28359.4,40718.9 28360.3,40719.1 28360.7,40719.2C28360.8,40719.1 28361.7,40719.5 28362.4,40720.2C28363.1,40720.7 28364.3,40721.4 28365,40721.7C28365.8,40722 28366.5,40722.4 28366.7,40722.8C28366.9,40723.2 28367.4,40723.6 28367.6,40723.8C28368.1,40724.1 28368.8,40725.3 28370.9,40729.8C28371.6,40731.3 28372.1,40732.4 28372.5,40733.3C28373.6,40735.7 28373.5,40736.2 28373.4,40738.1C28373.2,40739.6 28373.1,40741.2 28372.9,40741.5C28372.8,40742.1 28372.6,40743 28372.4,40743.6C28372.2,40744.3 28372.2,40745.5 28372.4,40746.2C28372.6,40747.5 28372.6,40747.6 28371.8,40748.3C28371.3,40748.7 28370.8,40749.4 28370.7,40749.9C28370.4,40750.4 28370,40751 28369.6,40751.7C28369.4,40752.1 28368.7,40752.6 28368.6,40752.6C28368.3,40752.8 28368.1,40753.4 28367.8,40754C28367.7,40754.4 28367.5,40754.9 28367.2,40755.1C28367,40755.1 28366.7,40755.4 28366.3,40755.8C28366.2,40756.2 28365.7,40756.5 28365.4,40756.7C28365.1,40756.8 28364.9,40757.2 28364.8,40757.8C28364.5,40758.2 28364.2,40758.7 28363.9,40758.8C28363.6,40758.9 28363.1,40758.8 28362.5,40758.7C28362.2,40758.6 28361.5,40758.7 28361.3,40758.8C28360.9,40759 28360.5,40759.3 28360.3,40759.6C28360.1,40760 28359.5,40760.4 28359,40760.8C28358.4,40761.2 28357.7,40761.5 28357.3,40761.8C28356.9,40762 28356.5,40762.5 28356.1,40762.9C28355.8,40763.3 28354.5,40764.1 28351.5,40765.4C28347.5,40767.1 28347.1,40767.3 28346.3,40767C28345.8,40766.9 28345.1,40767 28343.9,40767.6C28342.5,40768.2 28342.3,40768.1 28341.4,40767.8C28340.9,40767.5 28340.1,40767.4 28339.5,40767.5C28338.9,40767.6 28338.1,40767.8 28337.5,40767.9C28336.9,40768 28336.3,40767.9 28335.8,40767.5C28335.2,40767.3 28334.6,40767 28333.9,40767.2C28333.3,40767.3 28331.9,40767.2 28330.9,40767C28329.5,40767 28328.6,40766.7 28328.3,40766.4C28328,40766 28327.4,40765.8 28326.8,40765.7C28326.1,40765.6 28325.8,40765.5 28325.6,40765.1C28325.5,40764.8 28325.1,40764.4 28324.9,40764.2C28324.5,40764.1 28324.2,40763.7 28324.1,40763.6C28324,40763.4 28323.3,40762.8 28322.3,40762.4C28321.4,40762 28320.4,40761.2 28320.1,40760.9C28319.9,40760.3 28319.3,40759.8 28318.9,40759.6C28318.2,40759.1 28318,40758.7 28316.2,40754.6C28314.5,40750.4 28314.4,40749.9 28314.3,40748.8ZM28308,40757.3C28308.2,40757.4 28308.8,40757.8 28309,40758C28309.7,40758.4 28309.8,40758.7 28309.8,40759.5C28310,40760.2 28310.2,40760.6 28310.6,40761.3C28311,40761.8 28311.7,40763.1 28312.1,40764.4C28313.1,40766.6 28313.1,40766.6 28314.2,40766.9C28314.8,40767 28315.4,40767.2 28315.4,40767.4C28315.5,40767.5 28316.2,40768 28316.9,40768.5C28317.6,40769 28318.7,40769.6 28319.3,40769.8C28319.7,40770.1 28320.4,40770.6 28320.8,40771C28321.1,40771.3 28321.7,40771.7 28322.2,40771.6C28322.7,40771.7 28323.4,40772.1 28324.1,40772.9C28324.7,40773.7 28325.4,40774.4 28325.5,40774.6C28325.5,40774.8 28325.4,40775.2 28325,40775.5C28324.8,40775.7 28324.4,40776.3 28324.4,40776.6C28324.2,40776.9 28323.5,40777.5 28322.6,40778.1C28321.8,40778.6 28321,40779.1 28320.9,40779.3C28320.8,40779.3 28320.6,40780 28320.5,40780.8C28320.3,40781.8 28320.4,40782.5 28321.1,40784.5C28321.8,40786.6 28322,40787 28322.6,40787.2C28323.1,40787.5 28323.6,40787.9 28323.7,40788.2C28324,40788.6 28324.6,40789 28324.9,40789.2C28325.7,40789.5 28325.7,40789.5 28335.5,40785.2C28340.7,40782.8 28345.4,40780.7 28345.8,40780.5C28346.2,40780.2 28346.7,40779.8 28346.9,40779.6C28347.1,40779.3 28347.8,40778.8 28348.4,40778.6C28349.1,40778.3 28350,40778 28350.5,40778.1C28351,40778.1 28351.6,40778 28352,40777.8C28352.2,40777.6 28353.1,40776.9 28353.6,40776.3C28354.8,40775.3 28355,40775.2 28356.2,40775C28357.4,40774.8 28357.8,40774.8 28358.2,40774.3C28358.6,40773.8 28359,40773.6 28359.6,40773.7C28360,40773.5 28361,40773.2 28361.8,40772.9C28362.6,40772.4 28365.2,40771.2 28367.6,40770.2C28369,40769.5 28369.9,40769.1 28370.6,40768.8C28372,40768.2 28372.3,40768.2 28373,40768.3C28373.8,40768.6 28374.2,40768.4 28375.3,40767.9C28376.1,40767.4 28376.7,40767 28376.8,40766.5C28377.1,40765.8 28377.4,40765.7 28383.6,40763C28387.1,40761.5 28390.4,40760 28390.7,40759.7C28391.1,40759.4 28392,40759.2 28392.5,40758.9C28393.5,40758.8 28393.7,40758.6 28394.1,40758.1C28394.3,40757.7 28395,40757 28395.6,40756.6C28396.4,40756.1 28397.1,40755.9 28398.4,40755.9C28399.8,40755.7 28400.7,40755.5 28403.9,40754.1C28407.2,40752.7 28407.8,40752.2 28408.3,40751.5C28408.9,40750.9 28409.4,40750.6 28411.1,40750C28412.3,40749.4 28413.7,40748.7 28414.2,40748.3C28414.6,40747.9 28415,40747.3 28415.2,40746.9C28415.1,40746.4 28415.5,40745.7 28415.9,40745.4C28416.3,40744.9 28416.2,40744.6 28415.9,40744.1C28415.7,40743.9 28415.1,40743 28414.8,40742.3C28414.4,40741.4 28414,40740.8 28413.5,40740.5C28413.1,40740.4 28412.8,40740 28412.7,40739.7C28412.6,40739.5 28412.3,40739.2 28411.9,40739.1C28411.7,40738.9 28411.3,40738.9 28411,40738.8C28410.7,40739 28410.1,40739.1 28409.6,40739C28408.9,40738.9 28407.6,40739.3 28404.6,40740.7L28399.8,40742.8C28399.3,40743 28396.3,40744.3 28392.9,40745.9C28391.6,40746.6 28390.5,40747 28389.7,40747.4C28387.2,40748.5 28386.6,40748.6 28385.7,40748.6C28385,40748.8 28383.8,40748.8 28383.1,40748.9C28382.3,40749.1 28381.5,40749.1 28381.1,40749C28380.8,40748.8 28380.5,40748.4 28380.3,40748C28380.4,40747.7 28380,40747.2 28379.8,40747.1C28379.6,40747 28379.3,40746.5 28379,40745.8C28378.9,40745 28379,40744.5 28379.4,40744C28379.6,40743.6 28379.8,40742.6 28379.8,40742C28379.9,40741.3 28379.9,40740.2 28379.8,40739.3C28379.8,40738.5 28379.7,40737.4 28379.6,40737C28379.6,40736.6 28379.5,40735.9 28379.4,40735.4C28379.5,40735.1 28379.5,40734.1 28379.8,40733.1C28380.1,40732 28380.2,40731.7 28379.6,40730.3C28379.3,40729.8 28379,40729.1 28378.5,40728.1C28377.6,40726 28376.7,40724.6 28376.5,40724.5C28376.2,40724.3 28375.5,40723.5 28375,40722.7C28374.6,40721.8 28374,40720.7 28373.9,40720.4C28373.7,40720 28373.4,40719.3 28373.3,40718.7C28373.1,40717.8 28372.8,40717.6 28371.3,40716.5C28370.4,40715.9 28369.6,40715.1 28369.5,40715C28369.4,40714.7 28368.9,40714.3 28368.5,40714.1C28367.9,40713.9 28367.4,40713.4 28367.2,40713.2C28367.1,40712.9 28366.9,40712.7 28366.5,40712.7C28366.3,40712.6 28365.8,40712.1 28365.4,40711.7C28365,40711 28364.2,40710.7 28363,40710.2C28361.7,40709.8 28361,40709.5 28360.6,40708.8C28360.1,40708.1 28359.7,40707.9 28359.2,40708C28358.9,40708 28358.3,40708.1 28357.9,40708.2C28357.5,40708.2 28356.6,40708.1 28356,40707.7C28355.3,40707.4 28354.4,40707.1 28353.7,40707.1C28353.1,40707.2 28352.4,40707 28352.1,40706.8C28351.9,40706.6 28351,40706.5 28350.1,40706.4C28349.3,40706.4 28348.4,40706.5 28348.3,40706.7C28348,40706.8 28347.5,40706.8 28346.9,40706.5C28346.3,40706.2 28345.6,40706.2 28345.3,40706.3C28345.1,40706.4 28344.9,40706.7 28344.6,40707C28344.6,40707.2 28344.2,40707.3 28343.2,40707.1C28342.4,40707.1 28341.5,40707.2 28341.2,40707.3C28340.6,40707.6 28340,40707.5 28339.4,40707.3C28338.4,40707 28338.2,40707.2 28337.5,40707.6C28337,40708 28335,40708.9 28333,40709.7C28329.9,40711.1 28329.3,40711.2 28328.4,40711.1C28327.8,40711.1 28327.4,40711.1 28326.8,40711.4C28326.4,40711.6 28325.9,40711.8 28325.2,40712.2C28324,40712.7 28322.9,40713.5 28322.5,40713.8C28322.1,40714.4 28321.2,40714.9 28320.1,40715.5C28318.9,40716.1 28318.3,40716.5 28317.9,40717.2C28317.5,40717.7 28317.2,40718.2 28317,40718.2C28317,40718.2 28316.7,40718.5 28316.5,40718.9C28316.4,40719.3 28315.5,40720 28314.9,40720.3C28313.9,40720.9 28313.5,40721.4 28313.1,40722.3C28312.8,40722.8 28312.4,40723.4 28312,40723.5C28311.7,40723.7 28311.3,40724.2 28311.1,40724.6C28310.8,40725 28310.3,40725.8 28309.8,40726.3C28309.3,40726.7 28308.6,40727.3 28308.3,40727.6C28307.9,40727.8 28307.6,40728.6 28307.3,40729.4C28307.1,40730.1 28306.7,40731.4 28306.4,40732.2C28306.1,40732.9 28305.5,40733.9 28305.3,40734.2C28305.1,40734.4 28304.9,40734.8 28305,40735C28305.1,40735.1 28305,40736 28304.8,40736.9C28304.7,40737.7 28304.5,40738.8 28304.7,40739.1C28304.6,40739.4 28304.5,40740.5 28304.2,40741.4C28303.7,40742.9 28303.6,40743.1 28304.3,40744.2C28304.8,40744.9 28304.9,40745.6 28304.8,40746.6C28304.8,40747.6 28305,40748 28305.6,40749.2C28306.3,40750.3 28306.5,40751.1 28306.7,40752.7C28306.8,40753.6 28307.1,40755.1 28307.2,40755.7C28307.5,40756.4 28307.8,40757.1 28308,40757.3Z" style="fill-rule:nonzero;"/>
                </g>
                <g transform="matrix(3.90569,0,0,3.90569,-82126.6,-118111)">
                    <path d="M28392,40721.3C28392.2,40722.5 28392.4,40723.8 28392.5,40724.2C28392.5,40724.6 28392.7,40725.4 28392.8,40726C28393,40726.6 28393,40727.5 28392.9,40727.9C28392.9,40728.2 28392.9,40729.1 28393,40729.7C28393,40730.4 28393,40731.5 28392.8,40732.1C28392.6,40732.7 28392.4,40733.6 28392.2,40734.1L28391.3,40735.8C28390.9,40736.4 28390.5,40737.1 28390.3,40737.6C28390,40738 28389.7,40738.7 28389.6,40739.1C28389.5,40739.5 28389.1,40740.4 28388.6,40741C28388.2,40741.7 28387.7,40742.5 28387.8,40742.6C28387.8,40742.8 28387.3,40743.2 28386.8,40743.5C28386,40744 28385.7,40744.4 28385.6,40745.1C28385.4,40745.9 28385.3,40746 28383.8,40746.7C28382.3,40747.4 28382.2,40747.5 28381.8,40748.4C28381.6,40749.2 28381.4,40749.5 28379.6,40750.6C28378.4,40751.3 28377.1,40751.9 28376.7,40752.1C28376.1,40752.3 28374.8,40753.1 28373.5,40753.9C28371.6,40755 28370.8,40755.3 28369.8,40755.5C28368.6,40755.6 28368.2,40755.8 28366.3,40757.1C28364.4,40758.3 28364.2,40758.5 28363,40758.5C28362.3,40758.6 28361.4,40758.9 28361,40759.1C28360.4,40759.5 28359.9,40759.5 28358.9,40759.3C28358.4,40759.3 28357.6,40759.2 28357.2,40759.5C28357,40759.6 28356.2,40759.5 28355,40759.2C28354.2,40759 28353,40758.8 28352.5,40758.9C28351.9,40759.1 28351.5,40759 28351.5,40758.9C28351.3,40758.6 28350.9,40758.5 28350.7,40758.4C28350.3,40758.5 28349,40758.2 28347.8,40758C28346.5,40757.9 28345.2,40757.5 28344.6,40757.1C28344.1,40756.7 28343.4,40755.9 28342.6,40754.5C28341.7,40752.9 28341.1,40752.2 28340.2,40751.7C28339.6,40751.2 28338.9,40750.6 28338.4,40749.8C28337.9,40749 28337.6,40748.7 28337.1,40748.5C28336.5,40748.4 28336.2,40748.1 28335.7,40747.2C28335.3,40746.6 28335,40745.5 28334.9,40744.7C28334.7,40743.6 28334.5,40742.6 28333.8,40741.3C28333.3,40740.2 28332.9,40739.4 28333,40738.8C28332.9,40738.5 28332.9,40737.8 28332.7,40737.6C28332.5,40737.2 28332.5,40736.6 28332.8,40736C28333.1,40735.3 28333.3,40734.3 28333.2,40733.8C28333.1,40733.4 28333.2,40732.4 28333.4,40731.8C28333.5,40731.2 28333.8,40729.8 28334,40729C28334,40728.1 28334.3,40727.2 28334.5,40726.9C28334.7,40726.8 28335.1,40726.2 28335.2,40725.8C28335.5,40725.3 28335.9,40724.9 28336.7,40724.4C28337.2,40724.1 28337.8,40723.6 28337.7,40723.5C28337.7,40723.3 28338.1,40722.9 28338.6,40722.6C28339.1,40722.3 28339.4,40721.9 28339.6,40721.1C28340,40720.2 28340.1,40720.1 28342.7,40718.6C28345,40717.2 28345.3,40716.9 28345.6,40716.2C28345.9,40715.5 28346.2,40715.3 28348.9,40713.7L28352.1,40711.8C28352.4,40711.6 28354.3,40710.5 28356.6,40709C28360.7,40706.5 28360.7,40706.5 28361.7,40706.7C28362.3,40706.8 28362.9,40706.6 28363,40706.6C28363.2,40706.3 28364.5,40706.1 28365.8,40706C28367.1,40705.9 28368.5,40705.6 28368.9,40705.3C28369.4,40705 28370,40705.1 28371.3,40705.3C28372.4,40705.6 28373,40705.5 28373.6,40705.2C28373.8,40705.1 28374.3,40705 28374.6,40705.1C28374.8,40705.2 28375.9,40705.6 28377.2,40706C28378.3,40706.4 28379.5,40706.7 28379.5,40706.7C28379.7,40706.7 28379.9,40706.7 28380.1,40707.1C28380.3,40707.4 28380.8,40707.6 28381.2,40707.7C28381.6,40707.8 28382.4,40708.4 28383.2,40708.8C28384.2,40709.6 28384.8,40710.3 28386.8,40713.1C28388.2,40715.2 28389.4,40716.8 28389.9,40717.2C28390.3,40717.5 28390.8,40718.1 28391,40718.5C28391.3,40718.9 28391.6,40720.1 28392,40721.3ZM28394.2,40710.8C28393,40710.5 28392.8,40710.6 28391.9,40709C28391.5,40708.3 28391,40707.5 28390.7,40707.3C28390.6,40707 28390.5,40706.7 28390.7,40706.1C28391,40705.1 28391,40705.1 28390.1,40704.9C28389.7,40704.7 28389.1,40704.3 28388.4,40703.8C28387.8,40703.3 28387,40702.7 28386.5,40702.6C28386.1,40702.5 28385.6,40702.1 28385.4,40701.9C28385.3,40701.6 28384.7,40701.1 28384.4,40700.5C28384,40700.1 28383.4,40699.6 28383,40699.3C28382.6,40699 28382.3,40698.7 28382.2,40698.5L28381.7,40697.8C28381.5,40697.6 28380.7,40697.2 28379.8,40696.8C28378.9,40696.5 28378,40696.1 28377.7,40695.9L28376.9,40695.7C28376.6,40695.9 28374.6,40695.4 28372.4,40694.9C28370.2,40694.5 28368.2,40694.1 28368.1,40694.1C28367.8,40694.3 28367.1,40694.2 28366.2,40694C28365.1,40693.6 28364.8,40693.6 28364.3,40694.1C28364.1,40694.2 28363.6,40694.5 28363.2,40694.4C28362.8,40694.4 28362.4,40694.3 28362.2,40694.5C28362,40694.6 28361.6,40694.7 28361.1,40694.6C28360.7,40694.4 28360.2,40694.4 28359.7,40694.7C28359.2,40695 28358.4,40695.3 28357.9,40695.3C28357.1,40695.2 28356.4,40695.4 28354.6,40696.5C28352.9,40697.5 28352.3,40697.7 28351.9,40697.6C28351.5,40697.5 28350.8,40697.5 28350.1,40698L28344.1,40701.5C28339.6,40704.2 28339.3,40704.3 28338.6,40705.3C28338.3,40705.9 28337.6,40706.5 28337,40706.9C28336.5,40707.2 28335.8,40707.9 28335.5,40708.5C28335.2,40709 28334.7,40709.5 28334.4,40709.7C28334.2,40709.8 28333.7,40710.5 28333.3,40711C28332.9,40711.6 28332.5,40712 28332.2,40712.2C28332,40712.3 28331.6,40712.9 28331.2,40713.3C28330.8,40713.9 28330.2,40714.4 28329.8,40714.6C28329.6,40714.8 28329.1,40715.2 28329,40715.6C28329.1,40716 28328.7,40716.5 28328.4,40716.9C28328,40717.1 28327.5,40718 28327.2,40718.7C28326.9,40719.4 28326.4,40720.9 28325.9,40722.2C28325.5,40723.5 28325.2,40724.8 28325.2,40725.1C28325.3,40725.3 28325.1,40726 28324.8,40726.5C28324.5,40727.1 28324.3,40727.7 28324.3,40728.1C28324.4,40728.5 28324.3,40729.1 28324.2,40729.5C28323.8,40729.9 28323.5,40730.8 28323.5,40731.5C28323.4,40732.1 28323.5,40732.9 28323.6,40733C28323.7,40733.3 28323.8,40734 28323.8,40734.5C28323.6,40735.5 28323.7,40735.9 28324.3,40736.8C28324.6,40737.5 28324.9,40738.2 28324.9,40738.5C28324.8,40738.9 28325,40739.5 28325.2,40739.9C28325.5,40740.3 28325.5,40741 28325.5,40741.5C28325.4,40742.1 28325.6,40742.9 28326,40743.6C28326.4,40744.3 28326.7,40745.4 28326.7,40746C28326.8,40746.7 28327.1,40747.6 28327.7,40748.9L28331.5,40755.3C28333,40757.7 28333.5,40758.3 28334.5,40759.1C28335.4,40759.8 28335.9,40760.4 28336.3,40761C28336.5,40761.7 28336.9,40762 28337.2,40762C28337.5,40762.2 28337.8,40762.4 28337.9,40762.5C28338,40762.6 28338.7,40762.9 28339.3,40763.1C28340,40763.4 28340.5,40763.7 28340.6,40763.9C28340.8,40764.1 28341.7,40764.8 28342.8,40765.5C28343.9,40766.1 28345.1,40766.8 28345.6,40767C28346.2,40767.1 28347,40767.6 28347.6,40768C28348.1,40768.3 28348.9,40768.7 28349.1,40768.8C28349.5,40768.9 28349.9,40769 28350.2,40769.2C28350.4,40769.5 28351.6,40769.8 28353,40770C28354.2,40770.3 28355.4,40770.3 28355.6,40770.2C28355.7,40770.2 28356.4,40770.2 28357.1,40770.5C28357.9,40770.6 28358.6,40770.7 28359,40770.5C28359.4,40770.2 28359.9,40770.3 28360.6,40770.4C28361.2,40770.6 28362.1,40770.7 28362.7,40770.5C28363.3,40770.4 28364.3,40770.2 28364.8,40770.2C28365.3,40770.2 28365.9,40769.9 28366.4,40769.6C28367.1,40769 28367.3,40768.9 28368.2,40769.1C28368.8,40769.2 28369.6,40769.1 28369.7,40769C28370,40768.9 28370.6,40768.7 28371.1,40768.7C28371.9,40768.6 28373,40768.1 28375.9,40766.4C28379.2,40764.7 28379.7,40764.3 28380.4,40764.4C28381,40764.5 28381.3,40764.5 28381.9,40764.2C28382.2,40764 28382.7,40763.6 28383.5,40763C28384.5,40762.2 28386.4,40760.9 28387.6,40760C28389.4,40758.6 28389.7,40758.2 28389.8,40757.5C28389.8,40757 28390,40756.7 28390.8,40756.2C28391.3,40755.9 28391.9,40755.4 28392,40754.8C28392.4,40754.2 28392.7,40753.8 28393.3,40753.7C28393.8,40753.4 28394.1,40753 28394.5,40752.4C28394.7,40752 28395.2,40751.5 28395.4,40751.4C28395.8,40751.1 28396.5,40750.4 28397,40749.8C28397.2,40749.1 28397.7,40748.3 28397.8,40748C28397.8,40747.7 28398,40747.4 28398.3,40747.3C28398.4,40747.2 28398.9,40746.3 28399.4,40745.6C28399.9,40744.7 28400.5,40743.3 28400.8,40742.4C28401.2,40741.3 28401.4,40740.5 28401.3,40740.4C28401.3,40740.2 28401.4,40739.6 28401.6,40739C28401.9,40738.3 28402.1,40737.3 28402.5,40736.7C28402.8,40736 28402.8,40735.7 28402.4,40735C28402.2,40734.6 28402.1,40734 28402.1,40733.4C28402.2,40733 28402.1,40732.5 28401.9,40732.5C28401.9,40732.4 28401.8,40731.9 28401.8,40731.4C28401.7,40730.9 28401.8,40730.1 28401.7,40729.8C28401.6,40729.3 28401.7,40728.8 28401.7,40728.6C28401.7,40728.3 28401.6,40727.8 28401.6,40727.5C28401.5,40727 28401.5,40726.4 28401.6,40726.2C28401.4,40726 28401.4,40725.1 28401.2,40724.4C28401.1,40723.7 28400.5,40722.1 28400,40720.9C28399.2,40719.6 28399,40718.7 28399,40718C28399,40717.2 28398.9,40716.6 28397.3,40714.1C28395.6,40711.1 28395.6,40711.1 28394.2,40710.8Z" style="fill-rule:nonzero;"/>
                </g>
                <g transform="matrix(3.90569,0,0,3.90569,-82126.6,-118111)">
                    <path d="M28302.5,40747.1C28303,40747.5 28303,40747.9 28303.1,40748.7C28303.1,40749.3 28303,40750 28303.1,40750.5C28303,40751.1 28303,40751.4 28303.7,40751.9C28304,40752.2 28304.7,40752.8 28305.1,40753.4C28305.5,40754 28305.7,40754.5 28305.7,40754.8C28305.6,40755.2 28305.8,40755.6 28306.3,40755.8C28306.8,40756.1 28307.2,40756.6 28307.2,40756.8C28307.2,40757.1 28308.5,40758.3 28310,40759.5C28311.7,40760.8 28313.5,40762.1 28314.3,40762.4C28315,40762.9 28315.9,40763.3 28316.4,40763.2C28316.8,40763.3 28317.8,40763.5 28318.4,40763.8C28319,40764.1 28319.9,40764.4 28320.2,40764.5C28320.4,40764.7 28321.1,40764.8 28322.7,40764.6C28323.3,40764.5 28324.1,40764.4 28325,40764.2C28329.2,40763.7 28329.6,40763.6 28330.4,40762.9C28331,40762.6 28331.5,40762.2 28332.3,40762.1C28332.8,40762.2 28333.8,40761.7 28334.3,40761.4C28335,40761 28335.9,40760.3 28336.2,40759.8C28336.6,40759.3 28337.2,40758.9 28337.5,40758.8C28337.8,40758.8 28338.3,40758.3 28338.7,40757.8C28339.2,40757.1 28339.6,40756.3 28339.7,40755.7C28339.8,40755.2 28340.2,40754.2 28340.6,40753.6C28341.1,40752.9 28341.5,40752 28341.5,40751.3C28341.6,40750.9 28342,40750.1 28342.1,40749.6C28342.3,40749.3 28342.8,40748.3 28343.1,40747.7C28343.4,40746.9 28343.6,40745.9 28343.6,40745.8C28343.5,40745.5 28343.8,40744.8 28344,40744.5C28344.1,40744 28344.3,40743.6 28344.3,40743.4C28344.3,40743.3 28344.6,40742.8 28344.9,40742.3C28345.3,40741.8 28345.7,40741.1 28345.9,40740.6C28346,40740.2 28346.2,40739.4 28346.5,40738.9C28346.7,40738.6 28346.8,40738.1 28346.7,40738C28346.7,40737.8 28346.8,40736.9 28347.3,40735.8C28347.6,40734.8 28348.5,40733.2 28349.1,40732.2C28349.9,40731 28350.7,40730.2 28351.5,40729.5C28352.4,40729 28353.2,40728.6 28353.4,40728.6C28353.7,40728.6 28354.2,40728.2 28354.6,40727.8C28355.3,40727.1 28355.6,40727.1 28358.6,40726.9C28361.3,40726.7 28361.9,40726.8 28362.3,40727.2C28362.6,40727.4 28363.1,40727.5 28363.4,40727.5C28363.8,40727.4 28364.3,40727.7 28364.5,40727.8C28364.7,40727.9 28365.1,40728.2 28365.4,40728.1C28365.9,40728.1 28366.7,40728.4 28367.7,40728.9C28368.3,40729.4 28369.3,40730.1 28369.5,40730.2C28369.7,40730.5 28370.2,40730.9 28370.7,40731.3C28371.2,40731.9 28371.4,40732.2 28371.8,40735.1C28372,40736.9 28372.1,40738.5 28372,40738.8C28371.9,40739.2 28371.6,40739.5 28371.5,40739.8C28371.2,40740 28371.1,40740.6 28371.2,40741.1C28371.3,40741.8 28371.2,40742.1 28370.6,40742.5C28370.2,40742.7 28369.8,40743.2 28369.7,40743.5C28369.6,40743.8 28369.1,40744 28368.8,40744.1C28368.5,40744.1 28368,40744.5 28367.7,40745C28367.3,40745.5 28366.9,40745.7 28365.9,40746C28365,40746.1 28364.1,40746.5 28363.7,40746.9C28363.3,40747.2 28362.9,40747.6 28362.8,40747.6C28362.6,40747.6 28362.4,40747.9 28362.1,40748.3C28361.8,40748.6 28361.8,40749.4 28362.1,40752.1C28362.2,40754 28362.5,40756.1 28362.6,40756.9C28362.7,40757.5 28362.8,40758.7 28363,40759.1C28363.3,40760 28363.5,40760.2 28364.2,40760.3C28364.8,40760.2 28365.5,40760.4 28365.8,40760.9C28366.2,40761 28366.5,40761.1 28366.8,40761.1C28367.6,40761 28368.4,40759.9 28368.6,40759.7C28369.1,40759.1 28369.6,40758.7 28370.5,40758.4C28371.4,40758.3 28371.9,40757.8 28372.6,40757.1C28373.2,40756.6 28374,40755.9 28374.4,40755.7C28375.1,40755.4 28375.5,40754.9 28376.1,40753.6C28376.6,40752.7 28377.4,40751.5 28377.8,40751.1C28378.2,40750.6 28378.6,40750.1 28378.5,40749.8C28378.5,40749.5 28378.7,40748.9 28379.1,40748.2C28379.5,40747.7 28379.7,40747.1 28379.7,40746.8C28379.6,40746.7 28379.9,40746 28380.1,40745.5C28380.6,40744.9 28380.6,40744.6 28380.5,40743.7C28380.2,40742.8 28380.3,40742.3 28380.6,40741.5C28381,40740.6 28380.9,40740.3 28380.6,40737.3C28380.2,40735.5 28379.8,40733.3 28379.5,40732.3C28379.2,40731.2 28378.5,40729.5 28378.1,40728.3C28377.6,40727.2 28377,40726.1 28376.7,40725.6C28376.3,40725.2 28376.1,40725 28376.2,40724.2C28376.2,40723.1 28376,40723 28374.5,40722C28373.7,40721.2 28371.6,40719.6 28370,40718.3C28368.1,40717 28366.6,40716 28366.3,40716C28366,40716.1 28365.4,40715.9 28364.8,40715.6C28364.3,40715.4 28363.2,40715.1 28362.6,40715C28361.8,40714.8 28360.4,40714.8 28358.3,40715.1C28355.9,40715.2 28355.2,40715.3 28354.5,40715C28354,40714.7 28353.3,40714.7 28352.4,40714.8C28351.6,40714.9 28350.9,40715.1 28350.5,40715.5C28350.2,40715.8 28349.1,40716.3 28348,40716.5C28346.6,40717 28345.9,40717.4 28345.3,40718C28344.9,40718.5 28344.4,40718.8 28343.9,40718.9C28343.6,40718.9 28343.1,40719.2 28342.8,40719.6C28342.4,40720 28342.2,40720.8 28342.1,40721.4C28342.1,40722 28341.6,40722.8 28341.2,40723.3C28340.8,40723.8 28340.4,40724.6 28340.2,40725.4C28340,40726.1 28339.8,40726.8 28339.8,40727.1C28339.9,40727.4 28339.8,40728.1 28339.5,40728.4C28339.4,40728.7 28339,40729.8 28338.8,40730.6C28338.4,40731.4 28338.1,40732.4 28338.1,40732.5C28338.1,40732.7 28337.6,40733.6 28336.8,40734.7C28335.8,40736 28335.5,40736.8 28335.5,40737.3C28335.6,40737.7 28335.5,40738.2 28335.2,40738.5C28335,40738.8 28334.7,40739.6 28334.7,40740.2C28334.8,40740.8 28334.5,40741.5 28334.4,40741.6C28334.1,40741.8 28334,40742.3 28334,40742.4C28334.1,40742.7 28333.7,40743.5 28333.2,40744.2C28332.7,40745 28331.5,40746.6 28330.6,40747.7C28329.7,40748.9 28328.9,40750.1 28328.8,40750.4C28328.6,40750.7 28328.3,40750.9 28328,40751C28327.7,40751 28327.1,40751.2 28326.7,40751.6C28326,40752 28325.1,40752.2 28322.4,40752.6C28319.3,40753 28318.7,40752.9 28317.4,40752.6C28316.6,40752.2 28315.5,40751.8 28315,40751.4C28314.5,40750.8 28313.5,40750.2 28313,40749.8C28312.3,40749.3 28311.8,40748.5 28311.2,40747.3C28310.7,40746.2 28310.3,40745 28310.1,40743.5C28309.8,40741.6 28309.9,40741.3 28310.4,40740.6C28310.7,40740.1 28310.9,40739.5 28310.9,40739C28310.8,40738.6 28311,40737.9 28311.4,40737.3C28311.6,40736.8 28312.2,40736.3 28312.5,40736.1C28312.7,40735.9 28313.3,40735.8 28313.8,40735.8C28314.2,40735.7 28314.6,40735.4 28314.9,40735.2C28315,40734.9 28315.2,40734.2 28315.2,40733.8C28315.3,40733.3 28315.8,40732.3 28316.3,40731.7C28317.1,40730.5 28317.1,40730.5 28316.7,40727.4C28316.1,40724.5 28316.1,40724.4 28315.3,40723.6C28314.4,40722.8 28314.2,40722.7 28312.8,40723C28312,40723.1 28310.6,40723.6 28309.6,40724C28308.4,40724.6 28307.6,40725.2 28307.1,40725.9C28306.7,40726.4 28306.1,40726.9 28305.8,40726.9C28305.5,40727.1 28305.2,40727.8 28305,40728.4C28304.9,40729.2 28304.4,40730 28304,40730.3C28303.7,40730.7 28303.3,40731.2 28303.2,40731.5C28303.1,40731.8 28302.9,40732.5 28302.6,40732.8C28302.3,40733.4 28302.3,40733.7 28302.6,40737.5C28303.1,40740.9 28303.2,40741.7 28302.7,40742.9C28302.5,40743.7 28302.5,40744.6 28302.5,40744.8C28302.5,40745.1 28302.3,40745.6 28302.2,40745.7C28301.9,40745.9 28301.8,40746.2 28301.8,40746.2C28301.8,40746.4 28302.1,40746.7 28302.5,40747.1Z" style="fill-rule:nonzero;"/>
                </g>
                <g transform="matrix(3.90569,0,0,3.90569,-82126.6,-118111)">
                    <path d="M28400.5,40789C28400.6,40788.3 28401,40787.7 28401.5,40787.4C28401.9,40787 28402.2,40786.8 28402.2,40785.9C28402.2,40785.5 28402.3,40785 28402.6,40784.9C28402.9,40784.8 28403,40784 28403.1,40783C28403.2,40782 28403.4,40781 28403.4,40780.5C28403.5,40780 28403.3,40779.6 28402.6,40778.6L28401,40777C28400.8,40776.8 28399.6,40775.6 28398.5,40774.6C28396.4,40772.7 28396.4,40772.7 28396.1,40770.9C28395.9,40770 28395.8,40768.8 28396,40768.4C28396.1,40767.7 28396.6,40767.2 28400.1,40763.6C28403.8,40760 28404.1,40759.7 28404.2,40758.9C28404.2,40758.5 28404.3,40757.8 28404.5,40757.4C28404.7,40756.9 28404.8,40756.5 28404.4,40756.2L28403.1,40754.8C28402.6,40754.3 28401.7,40753.8 28401.1,40753.6C28400.3,40753.3 28399.7,40753.2 28399,40753.5C28398.5,40753.6 28397.7,40754 28397.1,40754.5C28396.6,40754.8 28395.8,40755.3 28395.7,40755.7L28394.1,40757.2C28393.5,40757.9 28392.3,40759 28391.3,40759.7C28389.8,40761.2 28389.6,40761.2 28388.8,40761.1C28388.5,40761 28387.5,40761 28386.6,40761C28385.1,40761 28385.1,40761 28382.9,40758.5C28381.7,40757.2 28380.6,40755.9 28380.4,40755.7C28380.2,40755.5 28377.8,40753.2 28375,40750.4C28372.4,40747.7 28370,40745.2 28369.9,40744.9C28369.6,40744.6 28368.9,40743.9 28368.5,40743.7C28367.8,40743.2 28367.6,40743 28367.4,40742.1C28367.2,40741.5 28366.5,40740.4 28365.9,40739.8C28365.1,40738.7 28364.9,40738.5 28363.8,40738.2C28362.7,40738 28362.7,40738 28358.4,40733.6C28354.1,40729.2 28354.1,40729.2 28353.7,40727.9C28353.4,40726.5 28353.4,40726.5 28352.1,40726.1C28351.5,40725.9 28350.6,40725.4 28350,40724.8C28349.5,40724.2 28348.6,40723.6 28348.1,40723.3C28347.5,40723 28346.3,40722.5 28345.5,40722.3C28344.7,40722 28343.6,40721.6 28343.1,40721.6C28342.6,40721.5 28341.1,40721.5 28339.6,40721.7C28338.2,40721.8 28336.5,40722 28335.8,40722.1C28334.9,40722.3 28334.2,40722.6 28333.9,40722.9C28333.4,40723.3 28332.7,40723.6 28332,40723.8C28331.4,40723.8 28330.2,40724.3 28329.6,40724.7C28329,40725.1 28328.1,40725.9 28327.3,40726.7C28327,40727 28326.6,40727.3 28326.4,40727.7C28325.2,40728.8 28324.2,40730 28324,40730.6C28323.5,40731.3 28322.6,40732.4 28321.5,40733.7C28320.3,40734.9 28319.4,40735.9 28319.3,40736.2C28319.1,40736.6 28319.3,40737.7 28319.5,40738.8C28319.9,40740 28320.1,40740.5 28320.6,40741C28321.3,40741.8 28321.1,40741.3 28322.7,40742.9C28323.1,40743.1 28323.7,40743.3 28324.5,40743.2C28325.8,40743.1 28325.8,40743.1 28331.3,40737.8C28334.4,40734.8 28336.8,40732.4 28337,40732.4C28337,40732.4 28337.9,40732.6 28338.5,40732.8C28339.4,40733.1 28340,40733.5 28340.1,40733.6C28340.3,40733.8 28340.9,40733.9 28341.4,40734C28342,40734 28342.4,40734.3 28343.2,40735.2C28343.8,40735.9 28345,40736.6 28346.2,40737.3C28347.5,40737.9 28348.6,40738.8 28349.3,40739.6C28350.1,40740.4 28350.6,40741.1 28350.8,40741.7C28350.9,40742.5 28351.4,40743 28353.6,40745.5L28367.5,40759.7C28377.5,40770.1 28377.5,40770.1 28377.4,40771.2C28377.4,40771.8 28377.1,40772.3 28376.4,40773.1C28375.8,40773.6 28373.7,40775.7 28371.5,40778C28369,40780.4 28367.4,40782.2 28367.1,40782.8C28366.8,40783.5 28366.8,40784.1 28366.8,40785.1C28367,40786.2 28367.4,40786.5 28368.2,40787.4C28368.7,40787.9 28369.5,40788.4 28369.7,40788.6C28369.9,40788.9 28370.5,40789.3 28371.1,40789.6C28371.7,40790.1 28372.2,40790.2 28372.7,40790.1C28373.2,40789.9 28374.4,40788.9 28376.6,40786.7C28379.4,40783.8 28379.6,40783.6 28380,40782.4C28380.2,40781.5 28380.4,40781.1 28381.4,40780.4C28382.1,40779.9 28383,40779.2 28383.5,40778.9C28384.1,40778.6 28384.7,40778.6 28385.4,40778.7C28386.3,40778.9 28386.6,40779.3 28388.5,40781.2C28389.8,40782.5 28390.9,40783.5 28391.4,40783.8C28392.3,40784.2 28392.6,40784.6 28393.3,40785.7C28394,40786.6 28395.1,40788 28396,40788.9C28397.2,40790.1 28397.7,40790.5 28398.5,40790.6C28398.8,40790.7 28399.5,40790.5 28399.8,40790.4C28400,40790.2 28400.3,40789.4 28400.5,40789Z" style="fill-rule:nonzero;"/>
                </g>
                <g transform="matrix(3.90569,0,0,3.90569,-82126.6,-118111)">
                    <path d="M28366.6,40727.5C28366.9,40727.8 28367.4,40728.3 28367.5,40728.3C28367.7,40728.3 28368,40728.4 28368.1,40728.6C28368.4,40728.9 28368.6,40730.1 28368.6,40732.3C28368.5,40734.3 28368.5,40736.9 28368.4,40738.1C28368.2,40739.6 28368,40740.6 28367.7,40741.1C28367.4,40741.5 28367.1,40742.4 28367.1,40743.3C28367.1,40744.5 28367,40745.3 28366.4,40746.2C28365.9,40746.9 28365.6,40747.7 28365.6,40748.1C28365.7,40748.6 28365.4,40749 28364.5,40749.9C28363.9,40750.5 28363.2,40751.4 28362.7,40751.9C28362.4,40752.3 28361.7,40752.9 28361.2,40753.1C28360.7,40753.4 28360.4,40753.8 28360.4,40754.1C28360.4,40754.4 28360.1,40754.7 28359.8,40754.9C28359.5,40755 28359.2,40755.2 28359.1,40755.2C28359.1,40755 28358.6,40755.3 28358.2,40755.4C28357.7,40755.7 28356.8,40756 28355.9,40756.2C28355.2,40756.2 28354.1,40756.5 28353.8,40756.6C28353.4,40756.9 28352.4,40757.1 28351.7,40756.9C28350.9,40756.9 28349.7,40757 28349.1,40757.2C28348.8,40757.2 28348.6,40757.3 28348.4,40757.3C28348,40757.3 28347.7,40757.1 28347.3,40756.7C28346.7,40756.1 28346.4,40756.1 28344.6,40756.1C28342.7,40756.1 28342.5,40756.1 28341.8,40755.2C28341.3,40754.7 28340.4,40753.7 28339.7,40752.8C28338.8,40751.9 28338,40750.5 28337.6,40749.7C28337.3,40748.8 28337,40747.5 28337,40746.4C28336.9,40745.4 28336.9,40743.9 28336.7,40743.1C28336.7,40742.4 28336.7,40741.5 28336.9,40741.3C28337,40741.2 28337.2,40740.6 28337.2,40739.8L28337.2,40738.3C28337.2,40738 28337.5,40737.6 28338,40737.1C28338.3,40736.7 28338.6,40736.1 28338.4,40735.9C28338.4,40735.8 28338.6,40735.3 28338.9,40734.9C28339,40734.6 28339.4,40734.1 28339.4,40733.8C28339.4,40733.5 28339.8,40733.1 28340.4,40732.8C28340.9,40732.5 28341.6,40731.7 28341.9,40731.1C28342.4,40730.7 28342.8,40730.1 28343.3,40729.9C28343.6,40729.8 28344.3,40729.6 28344.8,40729.6C28345.2,40729.6 28346.2,40729.3 28346.9,40729C28347.5,40728.7 28348.3,40728.3 28348.7,40728C28349.2,40727.7 28349.6,40727.6 28351.6,40727.7C28353.7,40727.9 28354,40727.9 28355,40727.3C28356.1,40726.5 28356.3,40726.5 28361.1,40726.6C28366,40726.6 28366,40726.6 28366.6,40727.5ZM28353.8,40689.2C28353.5,40689.4 28352.9,40689.5 28352.3,40689.5C28351.8,40689.5 28350.9,40689.8 28350.5,40690.1C28349.7,40690.4 28349,40690.5 28347.9,40690.4C28346.7,40690.4 28346.1,40690.5 28344.9,40691C28344.1,40691.4 28343.1,40691.8 28342.8,40692C28342.3,40692.1 28341.7,40692.4 28341.4,40692.4C28341.3,40692.4 28340.8,40692.6 28340.5,40693C28340.2,40693.3 28339.9,40693.9 28339.8,40694.2C28339.6,40694.7 28339.3,40695.1 28339.1,40695.3C28338.8,40695.6 28337.9,40696 28337,40696.3C28336.1,40696.6 28334.9,40696.9 28334.5,40696.9C28334,40696.9 28333.4,40696.9 28333.3,40697.1C28333.1,40697.2 28333,40697.5 28332.8,40698C28332.8,40698.3 28332.5,40698.7 28332,40698.9C28331.6,40699.2 28331.1,40699.4 28331,40699.6L28331,40700C28331.1,40700.2 28330.8,40701 28330.4,40701.7C28329.6,40702.9 28329.5,40703.3 28329.6,40704.6C28329.6,40705.5 28329.9,40706.2 28330.2,40706.5C28330.3,40706.8 28330.9,40707.3 28331.4,40707.4C28331.8,40707.6 28332.4,40707.6 28332.9,40707.6C28333.2,40707.4 28334.3,40707.3 28335.2,40707.4C28336.4,40707.5 28336.8,40707.3 28337.6,40706.9C28338.2,40706.6 28338.9,40705.8 28339.4,40705.4C28339.8,40704.9 28340.4,40704.2 28340.7,40703.7C28340.9,40703.4 28341.4,40702.4 28341.7,40701.6C28342,40700.6 28342.4,40699.8 28343.5,40698.6C28345,40697.1 28345.2,40697.1 28346.1,40697.3C28347,40697.4 28347.3,40697.4 28347.9,40696.8C28348.3,40696.4 28348.6,40696.1 28348.8,40696.1C28348.9,40696.1 28350.3,40696.1 28351.8,40696C28354,40696 28354.9,40695.7 28355.7,40695.4C28356.5,40694.9 28357.2,40694.8 28358.3,40695C28359.3,40695 28359.9,40695.1 28360.2,40695.6C28360.4,40695.7 28361.3,40696.3 28362,40696.6C28362.8,40696.9 28363.4,40697.2 28363.5,40697.2C28363.7,40697.2 28364.3,40697.7 28364.7,40698.2C28365.2,40698.5 28365.6,40698.9 28365.9,40698.9C28366.1,40698.9 28366.4,40699.1 28366.7,40699.4C28367,40699.7 28367,40700 28366.8,40700.3C28366.6,40700.4 28366.5,40700.9 28366.5,40701.3C28366.5,40701.6 28366.6,40702.1 28366.9,40702.2C28367.1,40702.5 28367.4,40703 28367.4,40703.4C28367.5,40703.9 28367.8,40704.9 28368.1,40705.7C28368.7,40706.9 28368.7,40707.2 28368.7,40712.2C28368.6,40717.4 28368.6,40717.4 28367.6,40718.3C28366.7,40719.1 28366.7,40719.1 28361.1,40719C28356.1,40719.2 28355.5,40719.2 28354.5,40719.6C28353.7,40720.1 28353,40720.2 28351.9,40720.2C28350.9,40720.2 28350,40720.3 28349.7,40720.6C28349.2,40720.9 28348.3,40721.1 28347.3,40721.1C28346.1,40721.1 28345.3,40721.4 28345,40721.5C28344.8,40721.8 28344.1,40722.1 28343.5,40722.2C28342.9,40722.4 28342.3,40722.7 28342.1,40722.8C28342.1,40723 28341.7,40723 28341.4,40723C28340.9,40723 28340.3,40723.3 28339.9,40723.7C28339.4,40724 28338.8,40724.3 28338.2,40724.3C28337.8,40724.3 28336.4,40724.9 28335,40725.5C28333.1,40726.5 28332.5,40726.8 28331.6,40728.2L28329.9,40730.6C28329.7,40731 28329.3,40731.5 28328.8,40731.8C28328.4,40731.9 28328.2,40732.2 28328.4,40732.7C28328.4,40733 28328.2,40733.4 28327.8,40733.9C28327.5,40734.2 28327.2,40734.6 28327.2,40734.8C28327.2,40735.1 28327,40735.5 28326.7,40736C28326.4,40736.4 28326.1,40737.3 28326.1,40738.1C28325.9,40738.8 28325.6,40739.6 28325.5,40739.7C28325.3,40740 28325.2,40741.5 28325.1,40744.9C28325.1,40749.4 28325.1,40749.5 28325.7,40750.6C28326,40751.2 28326.3,40751.8 28326.3,40752.1C28326.3,40752.2 28326.6,40753 28326.9,40753.7C28327.3,40754.5 28328.2,40755.7 28328.8,40756.5C28329.6,40757.2 28330.3,40758.1 28330.5,40758.6C28330.6,40759 28331.4,40759.8 28332,40760.2C28332.6,40760.7 28333.3,40761.5 28333.5,40761.8C28333.8,40762.1 28334.4,40762.7 28335,40763C28335.6,40763.3 28336.5,40763.7 28336.8,40764C28337.2,40764.5 28337.8,40764.6 28338.9,40764.7C28339.6,40764.8 28340.8,40765 28341.3,40765.3C28342,40765.7 28342.3,40765.8 28343.5,40765.8C28344,40765.8 28344.8,40765.8 28345.9,40765.8C28346.6,40765.7 28347.2,40765.7 28347.8,40765.7C28349.3,40765.7 28350.6,40765.8 28351.3,40765.9C28351.9,40766 28352.3,40766.1 28352.5,40766.1C28353.1,40766.1 28353.4,40765.9 28353.7,40765.7C28354,40765.4 28354.8,40765.1 28355.3,40764.8C28355.7,40764.6 28356.2,40764.3 28356.2,40764.2C28356.3,40764 28356.6,40763.9 28356.8,40763.9C28357.1,40763.9 28357.7,40763.6 28358.1,40763.1C28358.4,40762.7 28358.9,40762.2 28359,40762.2C28359.2,40762.2 28359.8,40761.9 28360.4,40761.6C28361,40761.2 28361.8,40760.6 28361.9,40760.4C28362.1,40760.1 28362.7,40759.5 28363.3,40759.2C28364,40758.8 28364.8,40758.5 28365.7,40758.5C28366.4,40758.5 28367.5,40758.7 28367.9,40758.7C28368.4,40758.8 28368.8,40759.1 28369,40759.6C28369.3,40760 28369.4,40761.1 28369.6,40761.8C28369.6,40762.9 28369.9,40763.6 28370.2,40763.9C28370.6,40764.6 28371.2,40764.7 28372.7,40764.9C28374.1,40765 28375.1,40764.9 28376.9,40764.4C28378.1,40764.1 28379.5,40763.9 28379.8,40763.7C28380.4,40763.6 28380.4,40763.3 28380.4,40761.8C28380.6,40760.9 28380.6,40760 28380.6,40759.7C28380.4,40759.3 28380.4,40757.7 28380.3,40755.9C28380.3,40754.2 28380.2,40752.4 28380,40752.1C28379.9,40751.7 28379.6,40750.9 28379.4,40750.2C28379.3,40749.4 28379.2,40747.5 28379.3,40744C28379.3,40742.5 28379.3,40740.8 28379.3,40738.7C28379.5,40733.2 28379.6,40728.3 28379.6,40727.7L28379.6,40724C28379.5,40721.6 28379.6,40721 28379.9,40720.4C28380.2,40720.1 28380.4,40719.5 28380.4,40719.2C28380.4,40718.9 28380.2,40718.4 28379.9,40718C28379.5,40717.4 28379.5,40716.6 28379.5,40711.3C28379.6,40709.5 28379.6,40708.3 28379.6,40707.3C28379.6,40705.5 28379.5,40705.1 28379.1,40704.6C28379,40704.1 28378.7,40703.4 28378.7,40703.1C28378.7,40702.6 28378.4,40702 28378.1,40701.6C28377.6,40700.9 28377.3,40700.3 28377.3,40700C28377.3,40699.7 28376.9,40699 28376.3,40698.4C28375.7,40697.8 28375.2,40697.2 28375.2,40697C28375.2,40696.9 28375,40696.3 28374.4,40695.8C28373.9,40695.4 28373.3,40694.8 28373.2,40694.3C28372.9,40694 28372.3,40693.7 28372,40693.5C28371.4,40693.4 28370.8,40693.1 28370.5,40692.5C28370,40691.9 28369.4,40691.6 28369.1,40691.6C28368.8,40691.6 28368.4,40691.3 28367.9,40691C28367.6,40690.7 28367,40690.5 28366.7,40690.5C28366.3,40690.5 28365.7,40690.2 28365.2,40690C28364.6,40689.6 28363.4,40689.6 28360.1,40689.4C28357.8,40689.4 28355.6,40689.4 28355.1,40689.2C28355,40689.2 28354.8,40689.1 28354.6,40689.1C28354.3,40689.1 28354,40689.2 28353.8,40689.2Z" style="fill-rule:nonzero;"/>
                </g>
                <g transform="matrix(3.90569,0,0,3.90569,-82126.6,-118111)">
                    <path d="M28334.9,40770.8C28334.7,40770.5 28334.1,40770 28333.7,40769.8C28333,40769.5 28332.6,40769.2 28332.3,40768.3C28332.2,40767.8 28331.7,40766.9 28331.2,40766.6C28330.9,40766.1 28330.4,40765.4 28330.1,40764.8C28329.9,40764.5 28329.7,40763.9 28329.7,40763.7C28329.8,40763.6 28329.8,40763.1 28329.6,40762.5C28329.4,40762.1 28329.3,40761.3 28329.3,40760.7C28329.4,40760 28329.4,40758.9 28329.2,40758.2C28329,40757.3 28329,40756.5 28329.2,40756.2C28329.3,40755.8 28329.2,40755.3 28329.2,40754.9C28329,40754.5 28328.9,40753.9 28329.2,40753.2C28329.4,40752.6 28330,40751.2 28330.4,40749.9C28330.8,40748.3 28331.2,40747.5 28331.4,40747.2C28331.8,40746.9 28332,40746.6 28331.6,40745.9C28331.5,40745 28331.4,40744.7 28333.3,40740C28335,40735.6 28335.3,40735 28335.9,40734.6C28336.5,40734.4 28337,40733.6 28337.9,40731.7C28338.4,40730.3 28339.4,40728.7 28339.9,40728.1C28340.3,40727.6 28341.3,40726.6 28342,40726C28342.8,40725.4 28344.2,40724.3 28345.4,40723.6L28348.3,40721.7C28348.6,40721.2 28349.5,40720.7 28350,40720.6C28350.6,40720.3 28351.3,40720.3 28351.4,40720.3C28351.5,40720.4 28352.2,40720.3 28352.9,40720.1C28354,40719.9 28354.1,40720 28355.9,40720.8C28357.5,40721.6 28358,40721.7 28358.9,40721.5C28359.5,40721.6 28360.6,40721.7 28361.3,40721.8C28362,40722.1 28362.9,40722.4 28363.4,40722.8C28363.9,40723 28364.5,40723.7 28364.6,40724.2C28364.7,40724.6 28365.3,40725.3 28365.6,40725.4C28365.9,40725.8 28366.5,40726.4 28366.6,40726.8C28367,40727.6 28367.2,40727.9 28367.5,40727.8C28368,40727.9 28368.2,40728.1 28368.6,40729.1C28368.9,40729.7 28369.1,40730.7 28369.1,40731.2C28369,40731.8 28369.1,40732.5 28369.2,40732.7C28369.3,40732.9 28369.6,40733.3 28369.8,40733.6C28370,40733.8 28370.3,40734.4 28370.4,40734.8C28370.4,40735.3 28370.7,40736.2 28371.1,40736.8C28371.4,40737.6 28371.5,40738.2 28371.3,40738.7L28370.4,40741.1C28369.8,40742.2 28369.6,40743.1 28369.6,40744.2C28369.6,40745.3 28369.6,40745.8 28368.9,40747.5C28368.6,40748.3 28368.1,40749.5 28367.4,40751.2C28365.7,40755.1 28364.9,40756.6 28364.4,40757C28363.9,40757.5 28363.3,40758.5 28362.3,40761.2C28360.9,40764.7 28360.8,40764.8 28360,40765.3C28359.4,40765.6 28359.1,40766.1 28358.8,40766.8C28358.6,40767.2 28358.3,40767.7 28358.1,40767.6C28357.9,40767.7 28357.4,40768.3 28356.8,40768.9C28356.3,40769.7 28355.5,40770.2 28354.6,40770.5C28353.6,40771 28353.3,40771.2 28353.1,40771.8C28353.1,40772.3 28352.6,40772.6 28350.9,40773.3C28349.1,40774.1 28348.6,40774.2 28347.3,40774.1C28346.6,40773.9 28344.9,40773.6 28343.6,40773.4C28342.4,40773.1 28341,40773 28340.5,40773C28340,40773 28339.3,40773 28339.1,40772.9C28338.7,40772.9 28337.9,40772.6 28336.9,40772.2C28336,40771.7 28335.2,40771.2 28334.9,40770.8ZM28343.8,40783.5C28344.6,40783.2 28344.9,40783.1 28345.4,40783.5C28345.9,40783.9 28346.5,40783.9 28347.2,40783.7C28347.9,40783.7 28348.5,40783.8 28348.8,40784C28349,40784.1 28349.7,40784.2 28350.2,40783.9C28350.8,40783.8 28351.4,40783.8 28351.6,40783.8C28351.7,40783.9 28352.6,40783.7 28353.4,40783.4C28354.1,40783.2 28355,40783.1 28355.1,40783.1C28355.2,40783.2 28355.8,40783.1 28356.4,40782.7C28356.9,40782.3 28357.7,40782.2 28358.2,40782.1C28358.7,40782.1 28359.5,40781.8 28360,40781.3C28360.5,40780.9 28361.1,40780.6 28361.2,40780.7C28361.5,40780.8 28361.8,40780.8 28362.2,40780.6C28362.4,40780.5 28362.9,40780.1 28363.2,40779.7C28363.4,40779.3 28363.9,40778.8 28364.2,40778.6C28364.4,40778.4 28365,40777.6 28365.5,40776.9C28365.8,40776 28366.6,40774.9 28367.2,40774.3C28367.7,40773.7 28368.2,40772.9 28368.3,40772.6C28368.4,40772.3 28368.9,40771.9 28369.4,40771.4C28369.8,40771.1 28370.8,40770 28371.4,40769.2C28372.4,40767.9 28372.8,40767.3 28373.2,40765.8C28373.6,40764.5 28373.8,40764 28374.6,40763.3C28375.6,40762.4 28375.7,40762 28378.2,40755.7C28380.6,40749.5 28380.9,40749 28380.8,40747.5C28380.9,40746.5 28381.2,40745.4 28381.4,40744.8C28381.7,40744.1 28381.7,40743.6 28381.4,40743C28381.3,40742.5 28381.3,40742 28381.6,40741.3C28381.9,40740.6 28381.8,40740 28381.7,40739.4C28381.5,40739 28381.6,40738.4 28381.8,40738C28382,40737.6 28382,40736.8 28381.7,40736.2C28381.4,40735.6 28381.3,40734.4 28381.2,40733.7C28381.2,40732.6 28381,40732.2 28380.2,40731.4C28379.7,40730.9 28379.4,40730.2 28379.3,40729.9C28379.4,40729.8 28379.3,40729.1 28379.4,40728.8C28379.5,40728.3 28379,40727.5 28378.6,40726.9C28378.2,40726.1 28377.8,40725.1 28377.8,40724.6C28377.8,40723.8 28377.6,40723.6 28376.3,40722.7C28375.2,40722 28374.7,40721.6 28374.5,40720.9C28374.4,40720.3 28373.8,40719.7 28373.5,40719.5C28373.2,40719.2 28372.5,40718.6 28372,40718.1C28371.5,40717.7 28371,40717.3 28369,40716.6C28368.3,40716.3 28367.4,40715.9 28366.2,40715.5C28362.3,40714 28361.1,40713.7 28360.6,40713.8C28360.1,40713.8 28359.3,40713.8 28358.9,40713.7C28358.2,40713.7 28357.5,40713.5 28357.1,40713.7C28356.8,40713.7 28356.3,40713.7 28356.1,40713.6C28355.9,40713.5 28355.3,40713.6 28354.7,40713.9C28354.4,40714.1 28353.7,40714.1 28353.4,40714C28353.3,40714 28352.8,40713.9 28352.5,40714C28352.1,40714.1 28351.6,40714.1 28351.4,40714.1C28351.2,40713.9 28350.4,40714.1 28349.7,40714.5C28348.9,40714.8 28348.1,40715.2 28348,40715.3C28348,40715.4 28347.8,40715.5 28347.5,40715.6C28347.1,40715.6 28346.4,40715.4 28345.8,40715.2C28345,40714.9 28344.8,40714.8 28344.8,40714C28344.8,40713.7 28344.7,40713 28344.7,40712.8C28344.5,40712.3 28344.7,40711.4 28345.7,40708.5C28346.5,40706.4 28347.1,40704.6 28347.3,40704.2C28347.4,40703.9 28348,40702.8 28348.4,40701.7C28348.9,40700.8 28349.6,40699.6 28350,40699.4C28350.3,40699 28351,40697.9 28351.5,40696.8C28352.2,40695.4 28352.6,40694.8 28353,40694.5C28353.4,40694.3 28353.8,40693.8 28354.2,40693.1C28354.4,40692.6 28354.9,40691.8 28355.3,40691.6C28355.5,40691.4 28356.4,40690.9 28357,40690.7C28357.5,40690.2 28359,40689.7 28360.1,40689.2C28361.4,40688.7 28362.6,40688.4 28362.6,40688.5C28362.8,40688.6 28363.4,40688.7 28364.2,40688.7C28364.9,40688.6 28365.8,40688.8 28366.2,40689C28366.5,40689.1 28367,40689.1 28367.1,40689C28367.2,40688.9 28368.2,40689.3 28369.2,40689.7C28370.6,40690.2 28371.5,40690.4 28372,40690.3C28372.5,40690.2 28373.6,40690.4 28374.3,40690.6C28375.5,40690.9 28375.6,40690.9 28376.1,40691.8C28376.4,40692.3 28376.8,40692.8 28376.9,40692.9C28377.1,40693 28377.3,40693.2 28377.5,40693.6C28377.6,40693.8 28378,40694.6 28378.7,40695.4C28379.3,40695.9 28379.9,40696.8 28379.9,40697C28380,40697.2 28380.3,40697.6 28380.8,40698C28381.5,40698.6 28381.6,40699.1 28381.8,40700.3C28381.8,40701.1 28381.7,40702.1 28381.6,40702.5C28381.5,40702.8 28381.4,40703.4 28381.6,40703.6C28381.7,40703.8 28382.1,40704.5 28382.2,40705C28382.5,40705.6 28383,40706.1 28383.8,40706.8C28384.3,40707.1 28386,40708 28387.6,40708.6C28389.3,40709.2 28390.5,40709.7 28391.2,40709.7C28391.8,40709.8 28392.4,40709.5 28393,40708.8C28394,40707.9 28394,40707.9 28393.7,40707.1C28393.4,40706.5 28393.3,40706 28393.4,40705.4C28393.6,40704.8 28393.7,40703.9 28393.5,40703.3C28393.5,40702.7 28393.2,40701.7 28392.9,40701.3C28392.2,40700.5 28392.2,40700.2 28392.5,40699.8C28392.7,40699.4 28392.6,40699.1 28392.2,40698.6C28391.9,40698.1 28391.5,40697.4 28391.4,40697C28391.2,40696.4 28390.4,40695 28389.4,40693.6C28388.4,40692.2 28387.2,40690.8 28386.7,40690.3C28386.4,40689.8 28385.3,40689.1 28384.5,40688.6C28383.6,40688.3 28382.6,40687.5 28382.3,40687.2C28382,40687.1 28381.9,40687 28381.6,40686.9C28381.3,40686.8 28381,40686.7 28380.5,40686.7C28379.9,40686.8 28379.3,40686.6 28377.6,40686C28376.6,40685.6 28375.3,40685 28373.4,40684.2C28369.8,40682.8 28367,40681.7 28366.4,40681.6C28365.7,40681.5 28364.3,40681.4 28363.3,40681.2C28362.1,40681 28361,40680.9 28360.6,40681C28360.3,40680.8 28359.5,40681 28358.9,40680.9C28358.2,40681 28357,40681.1 28356.3,40681.3C28355.6,40681.4 28354.2,40681.7 28353.1,40681.9C28352.3,40682 28351.2,40682.3 28351,40682.5C28350.7,40682.7 28350,40683.2 28349.4,40683.5C28348.7,40683.8 28348.1,40684.4 28348,40684.7C28347.9,40685 28347.2,40685.4 28346.7,40685.6C28345.7,40686.1 28345.3,40686.2 28345,40686.9C28344.8,40687.5 28344.3,40688.3 28343.9,40688.6C28343.4,40689 28342.8,40689.8 28342.6,40690C28342.5,40690.5 28342.1,40691 28341.7,40691.3C28341.1,40691.5 28340.8,40692.2 28339.6,40695L28335.1,40706.3C28333.3,40710.8 28331.9,40714.9 28331.7,40715.3C28331.6,40715.6 28329.5,40720.4 28327.3,40726C28323.5,40735.2 28323.1,40736.2 28322.5,40736.5C28322,40736.7 28321.6,40737.6 28319.6,40742.4C28317.8,40746.7 28317.3,40748.5 28317.2,40749.2C28317.2,40749.9 28317.1,40750.8 28316.9,40751.2C28316.7,40751.8 28316.3,40752.3 28315.9,40752.4C28315.5,40752.8 28315.2,40753.5 28314.6,40755C28314.1,40756.1 28313.5,40757.7 28313.4,40758.4C28313.3,40759.2 28312.8,40760.3 28312.4,40760.9C28311.9,40761.7 28311.7,40762.7 28311.5,40764.1C28311.3,40765 28310.9,40766.8 28310.7,40767.8C28310.5,40769.1 28310.4,40770 28310.6,40770.5C28310.9,40771.2 28311.2,40771.4 28312.6,40772C28313.6,40772.2 28314.5,40772.4 28314.8,40772.4C28315.2,40772.4 28316.1,40772.4 28317,40772.6C28318.5,40772.9 28318.5,40772.9 28320,40771.5C28320.8,40770.7 28321.8,40770 28322.1,40769.9C28322.4,40769.7 28323.3,40769.9 28323.9,40770C28324.9,40770.2 28325.5,40770.5 28326.1,40771C28326.4,40771.5 28327,40772 28327.1,40772.4C28327.3,40772.8 28328,40773.5 28328.6,40774.1C28329.2,40774.7 28329.9,40775.6 28330.1,40775.8C28330.4,40776.3 28330.8,40776.7 28330.9,40776.8C28331.2,40776.9 28331.7,40777.3 28331.9,40777.9C28332.6,40778.7 28332.8,40778.9 28335.3,40779.7C28337.4,40780.5 28337.9,40780.7 28338.5,40781.4C28338.9,40781.9 28339.8,40782.6 28341,40783.1C28342.8,40783.9 28342.9,40784 28343.8,40783.5Z" style="fill-rule:nonzero;"/>
                </g>
                <g transform="matrix(3.90569,0,0,3.90569,-82126.6,-118111)">
                    <path d="M28385.5,40712.6C28385.8,40713.2 28386.3,40714.6 28387,40715.8C28387.7,40717.6 28387.8,40718.1 28387.4,40718.7C28387.2,40719.2 28386.8,40720.1 28386.7,40720.9C28386.5,40721.8 28386.3,40722.5 28386.4,40722.6C28386.4,40722.9 28386.3,40723.2 28386.2,40723.3C28386,40723.5 28385.8,40724.2 28385.7,40724.6C28385.5,40725.3 28384.9,40726.4 28384.4,40727.3C28383.8,40728.2 28383.3,40729.2 28383.2,40729.8C28383,40730.7 28382.7,40731.2 28381.1,40733C28379.8,40734.6 28379.1,40735.2 28378.3,40735.6C28377.8,40735.7 28377,40736 28376.7,40736.1C28376.2,40736.3 28375.7,40736.3 28375.5,40736.1C28375.3,40736.1 28373.9,40734.9 28372.7,40733.7C28371.2,40732.4 28369.8,40731.4 28369.5,40731.3C28369.4,40731.3 28369.3,40731.2 28369.1,40731.1C28368.9,40730.9 28368.5,40730.4 28368.2,40729.6C28367.7,40728.5 28367.5,40728.1 28366.3,40727C28365.8,40726.6 28365.1,40726 28364,40725.2L28359.7,40721.5C28359.2,40721 28357.3,40719.4 28355.7,40717.8C28352.8,40715 28352.8,40715 28352.8,40714.3C28352.9,40713.7 28353,40713.1 28353.2,40712.9C28353.4,40712.6 28353.6,40712.2 28353.7,40711.9C28353.7,40711.4 28354.1,40710.8 28354.7,40710C28355.5,40709.1 28356,40708.7 28356.7,40708.7C28357.2,40708.5 28357.7,40708.2 28358.7,40707C28359.8,40705.8 28360.1,40705.6 28360.8,40705.7C28361.5,40705.7 28361.8,40705.5 28362.2,40704.9C28362.4,40704.3 28362.8,40704.2 28363.5,40704C28364,40703.9 28364.5,40703.7 28364.7,40703.5C28364.9,40703.3 28366.5,40703.1 28368,40702.9C28369.7,40702.8 28371.4,40702.9 28371.7,40703C28372.2,40703.2 28373.3,40703.3 28374.1,40703.3C28375.6,40703.1 28375.6,40703.1 28380.4,40707.3C28384.4,40710.9 28385.2,40711.6 28385.5,40712.6ZM28385,40701.9C28384.2,40701.7 28383.3,40701.1 28381.8,40699.9C28380.4,40699 28379.2,40698.1 28378.9,40698C28378.4,40698 28377.9,40697.8 28377.6,40697.6C28377.3,40697.3 28376.8,40697 28376.3,40696.8C28375.7,40696.6 28374.8,40696.5 28374.2,40696.5C28373.6,40696.5 28372.6,40696.2 28372.2,40696C28371.6,40695.8 28370.9,40695.5 28370.2,40695.5C28369.8,40695.6 28369.2,40695.4 28369.1,40695.3C28368.9,40695.2 28368.4,40695.1 28368,40694.9C28367.5,40695 28366.8,40695.1 28366.2,40695.4C28365.8,40695.6 28365.1,40696 28364.8,40696.3C28364.5,40696.7 28363.7,40697.1 28362.9,40697.3C28362.2,40697.5 28361.7,40697.6 28361.6,40697.8C28361.5,40697.9 28360.6,40697.9 28359.5,40698C28358.5,40698.1 28357.3,40698.5 28356.4,40698.9C28355.6,40699.4 28354.3,40699.7 28353.5,40699.7C28352.4,40699.8 28351.9,40699.9 28351.7,40700.4C28351.6,40700.7 28351.1,40700.8 28350.4,40701C28349.5,40701.1 28348.8,40701.4 28347.6,40702.4C28346.6,40703.1 28345.8,40703.8 28345.6,40703.8C28345.5,40703.9 28345.1,40704.4 28344.9,40704.8C28344.4,40705.6 28344.2,40705.8 28343.4,40705.9C28342.8,40706 28342.5,40706 28342.3,40706.2C28342.1,40706.4 28342.1,40706.8 28342,40707.5C28341.7,40708.5 28341.4,40709.1 28340.6,40710C28339.6,40711.2 28339.3,40711.3 28338.7,40711.2C28338.2,40711.2 28338.1,40711.2 28337.3,40712.1C28336.8,40712.6 28336.3,40713.3 28335.4,40714.3C28333.3,40717.1 28333.1,40717.5 28333,40718.2C28333.1,40718.9 28333,40719 28332.4,40719.5C28331.7,40719.8 28331.2,40720.4 28330.2,40722C28329.4,40723.1 28328.8,40724.3 28328.6,40724.8C28328.4,40725.2 28328,40726.2 28327.6,40726.9C28327.1,40727.6 28326.6,40728.6 28326.6,40729.4C28326.4,40730 28326.3,40730.9 28326,40731.2C28325.8,40731.7 28325.6,40732.3 28325.7,40733C28325.7,40733.6 28325.5,40734.8 28325.4,40735.5C28325.3,40736.4 28325.2,40737.7 28325.3,40738.6C28325.4,40739.5 28325.2,40740.4 28325.1,40740.5C28324.9,40740.7 28324.9,40741.2 28324.8,40741.8C28324.7,40742.3 28325,40743.1 28325.3,40743.6C28325.5,40744 28325.6,40744.8 28325.5,40745.4C28325.5,40746 28325.7,40746.5 28325.8,40746.6C28326,40746.8 28326.2,40747.3 28326.2,40747.8C28326.1,40748.5 28326.4,40748.9 28327.5,40749.9C28328.4,40750.9 28328.9,40751.7 28329.7,40753.2C28330.1,40754.3 28330.6,40755.3 28330.7,40755.4C28330.8,40755.5 28331.1,40756.2 28331.3,40756.6C28331.5,40757.3 28331.7,40757.6 28332.5,40758.3C28333,40758.7 28333.6,40759.2 28334.4,40759.9C28336.5,40761.6 28337.4,40762.2 28337.8,40762.2C28338.2,40762.1 28339.3,40762.7 28340.4,40763.5C28341.6,40764.3 28343,40765.1 28343.6,40765.4C28344.3,40765.7 28345.1,40766.1 28345.3,40766.3C28345.6,40766.5 28346.4,40766.7 28347.2,40766.7C28347.9,40766.8 28348.7,40766.8 28348.8,40766.9C28348.9,40767 28350.1,40767.1 28351.5,40767.1C28352.9,40767.1 28354.3,40767.3 28354.8,40767.6C28355.5,40767.7 28356,40767.8 28356.6,40767.5C28356.9,40767.4 28357.7,40767.3 28358,40767.3C28358.5,40767.4 28359,40767.4 28359.2,40767.2C28359.4,40766.9 28360,40766.7 28360.8,40766.4C28361.5,40766.2 28362.5,40765.6 28363.1,40765.2C28363.6,40764.6 28364.3,40764.2 28364.5,40764.2C28364.9,40764.2 28365.3,40763.9 28365.7,40763.7C28365.9,40763.5 28366.3,40763 28366.3,40762.6C28366.5,40762.2 28366.6,40761.6 28366.5,40761.2C28366.5,40760.6 28366.1,40760.3 28364.2,40758.8C28362.4,40757.4 28362,40757 28361.1,40757.1L28359.3,40756.9C28358.5,40757.1 28358.2,40757.2 28357.5,40758C28357,40758.7 28356.5,40758.9 28356,40759.1C28355.6,40759.1 28354.7,40759.2 28354.1,40759.4C28353.5,40759.7 28352.7,40759.7 28351.9,40759.5C28351.2,40759.3 28350.1,40759.3 28349.1,40759.4C28348.4,40759.6 28347.6,40759.6 28347.5,40759.5C28347.4,40759.4 28346.3,40759 28345.1,40758.8C28344,40758.4 28342.7,40757.9 28342.2,40757.6L28339.3,40755.1C28339,40754.8 28338.5,40754.2 28338.5,40753.8C28338.4,40753.2 28338,40752.6 28337.4,40752.1C28336.9,40751.7 28336.6,40751.2 28336.6,40751C28336.5,40750.7 28336.3,40750.1 28336,40749.5C28335.8,40748.9 28335.5,40748.3 28335.6,40748.1C28335.6,40747.9 28335.5,40747.6 28335.1,40747.3C28334.9,40747.1 28334.5,40746.4 28334.5,40745.8C28334.4,40745.1 28334.5,40744.2 28334.8,40743.8C28335,40743.4 28334.9,40743 28334.7,40742.8C28334.6,40742.7 28334.3,40742.1 28334.4,40741.5C28334.3,40740.9 28334.5,40740.2 28334.6,40740.1C28334.7,40740 28334.8,40739.5 28334.6,40739.1C28334.5,40738.6 28334.5,40738 28334.6,40737.5C28334.7,40737 28334.7,40736.4 28334.5,40736.1C28334.3,40735.2 28334.3,40735.2 28336,40733.5C28337.6,40731.8 28337.7,40731.7 28338,40730.5C28338,40729.5 28338.2,40729.1 28339.2,40727.9C28339.8,40727.3 28340.6,40726.6 28340.9,40726.4C28341.3,40726.2 28342.1,40725.3 28342.7,40724.4C28343.4,40723.3 28344.3,40722.5 28344.9,40722C28345.9,40721.4 28346.1,40721.4 28347.5,40721.6C28348.9,40722 28349.3,40722.2 28350.9,40723.6L28353.1,40725.5C28353.3,40725.7 28354.9,40727.2 28356.8,40728.9C28359.4,40731.1 28360.3,40732.1 28360.4,40732.6C28360.5,40733 28361.1,40733.8 28361.7,40734.5C28362.8,40735.6 28362.9,40735.7 28363.5,40735.5C28364.2,40735.3 28364.4,40735.4 28366.4,40737.2C28368.2,40738.8 28368.6,40739.3 28368.7,40740C28369,40740.8 28369.5,40741.2 28372.7,40744C28374.7,40745.8 28376.5,40747.6 28376.8,40748C28377.4,40748.7 28377.5,40748.8 28377.9,40748.3C28378.3,40748.1 28378.7,40748 28379.4,40748.2C28380,40748.4 28381,40748.4 28381.8,40748.4C28383,40748.2 28383.3,40748 28384.6,40746.8C28385.5,40746 28386.7,40744.6 28387.3,40743.6C28388.1,40742.5 28389,40741.7 28389.3,40741.5C28389.5,40741.4 28389.8,40741.2 28390,40740.9C28390.2,40740.7 28390.4,40740.4 28390.6,40740C28391,40739.4 28391.3,40738.6 28391.2,40738.2C28391.3,40737.7 28391.6,40737.1 28392.5,40736.1C28393.4,40734.9 28393.7,40734.4 28393.8,40733.8C28393.7,40733.5 28393.8,40733.1 28394,40732.9C28394.1,40732.8 28394.2,40732.2 28394.1,40731.9C28394.1,40731.4 28394.3,40730.9 28394.8,40730.4C28395.3,40729.8 28395.5,40729.4 28395.5,40728.2C28395.6,40727.4 28395.7,40726.3 28395.9,40725.7C28396,40725 28396.1,40724.1 28396,40723.4C28396,40722.8 28395.9,40722.2 28396,40722.1C28396.2,40721.8 28396.2,40720.8 28396,40719.4C28395.7,40718.1 28395.3,40717 28395.1,40716.9C28394.9,40716.7 28394.9,40716.1 28394.8,40715.4C28394.8,40714.8 28394.5,40714.2 28394.2,40713.9C28393.8,40713.6 28393.5,40713.1 28393.6,40712.7C28393.5,40712.3 28393.6,40712 28393.7,40711.9C28393.9,40711.7 28393.6,40711.4 28393,40710.9C28392.3,40710.3 28392.1,40709.6 28391.9,40709.1C28391.8,40708.4 28391.5,40708.2 28389.5,40706.4C28387.3,40704.5 28387.1,40704.4 28387.1,40703.6C28387.2,40703.3 28386.9,40702.8 28386.6,40702.6C28386.4,40702.4 28385.7,40702.1 28385,40701.9Z" style="fill-rule:nonzero;"/>
                </g>
                <g transform="matrix(3.90569,0,0,3.90569,-82126.6,-118111)">
                    <path d="M28377.2,40770.4C28376.5,40770.6 28375.8,40771.1 28375.4,40771.6C28374.9,40772 28374.3,40772.2 28373.8,40772.3C28373.4,40772.4 28372.9,40772.6 28372.7,40772.8C28372.6,40772.9 28372.1,40773 28371.7,40773.1C28371.2,40773.2 28370.5,40773 28370.3,40772.8C28370.1,40772.6 28369.6,40772.4 28369.3,40772.3C28368.9,40772.1 28367.8,40772.3 28366.9,40772.7C28365.3,40773.2 28364.9,40773.3 28363.7,40773C28363,40772.8 28362,40772.4 28361.3,40772C28360.7,40771.6 28359.4,40771 28358.6,40770.7C28357.8,40770.3 28356.8,40770 28356.6,40770C28356.2,40770 28355.3,40769.2 28353.5,40767.5C28351.2,40765.1 28350.9,40765 28349.9,40764.8C28348.8,40764.5 28348.5,40764.3 28345,40761C28341.6,40757.8 28341.2,40757.4 28340.7,40756.3C28340.4,40755.4 28340.1,40754.8 28337.5,40752.5C28334.9,40750 28334.7,40749.8 28334.7,40748.9C28334.8,40748.4 28334.5,40748 28334.2,40747.9C28333.9,40747.8 28333.5,40747.3 28333.4,40746.7C28333.3,40746.2 28333,40745.5 28332.6,40745.2C28332.3,40744.8 28332.2,40744.3 28332.2,40743.9L28332.1,40741.5C28332.1,40740.7 28331.9,40739.7 28331.8,40739.4C28331.7,40739.3 28331.8,40738.4 28332.1,40737.4C28332.3,40736.5 28332.4,40735.3 28332.4,40734.4C28332.4,40733.6 28332.5,40732.8 28332.8,40732.5C28333.1,40732.2 28333.3,40731.5 28333.4,40731.2C28333.5,40730.7 28334.3,40729.6 28337.6,40725.8C28338.7,40724.6 28339.5,40723.7 28340.2,40723C28342,40721.1 28342.5,40720.9 28344.2,40720.3C28345.7,40719.9 28347.2,40719.4 28347.6,40719.4C28348.1,40719.2 28349.1,40719.1 28349.7,40719.1C28350.5,40719 28351.5,40718.5 28352.2,40718.1C28353.2,40717.4 28353.3,40717.3 28354.3,40717.8C28354.8,40718.1 28355.7,40718.3 28356.2,40718.2C28356.7,40718.2 28357.5,40718.3 28358.2,40718.4C28358.8,40718.5 28359.4,40718.9 28359.5,40719C28359.8,40719.2 28360.4,40719.2 28361,40719.2C28361.5,40719.2 28362.1,40719.2 28362.3,40719.4C28362.4,40719.5 28362.9,40719.7 28363.3,40719.9C28363.7,40719.9 28364.2,40720.2 28364.5,40720.4C28364.7,40720.6 28365.2,40720.7 28365.8,40720.5C28366.3,40720.6 28366.8,40720.7 28367,40720.9C28367.3,40721.1 28367.4,40721.7 28367.5,40722.2C28367.5,40722.6 28367.9,40723.1 28368.1,40723.3C28368.4,40723.6 28368.8,40723.8 28369.2,40723.9C28369.6,40723.9 28370.2,40724.3 28370.8,40724.6C28371.4,40725.1 28372,40725.6 28372.4,40725.8C28372.7,40726.1 28373.4,40726.3 28373.8,40726.5C28374.3,40726.6 28375.5,40727.5 28377.9,40729.8C28381.1,40732.7 28381.5,40733.1 28381.5,40733.9C28381.6,40734.4 28381.9,40735 28382.9,40735.9C28384,40736.9 28384,40737.1 28384.2,40738.1C28384.1,40738.6 28384.3,40739.5 28384.6,40740C28385,40740.5 28385.4,40741.1 28385.8,40741.7C28386.1,40742.2 28386.2,40742.7 28386,40743.3C28386,40744 28386.1,40744.6 28386.5,40745.3C28386.8,40745.8 28387.3,40747 28387.5,40748.1C28388,40749.4 28388.1,40750.3 28387.9,40750.7C28387.7,40751.2 28387.8,40751.8 28387.9,40752.3C28388.1,40753 28388.1,40753.4 28387.8,40753.7C28387.6,40753.9 28387.4,40754.4 28387.3,40754.7C28387.3,40755.1 28387.1,40755.6 28387,40755.7C28386.9,40755.8 28386.6,40756.7 28386.7,40757.8C28386.6,40758.8 28386.3,40759.9 28386.1,40760.4C28385.7,40760.8 28385.4,40761.6 28385.4,40762C28385.2,40762.9 28384.9,40763.2 28381.8,40766.5C28378.6,40769.7 28378.3,40770 28377.2,40770.4ZM28387.5,40772.9C28387.5,40772.7 28387.7,40772 28387.8,40771.7C28387.9,40771 28388.1,40770.8 28388.8,40770.4C28389.5,40770 28389.8,40769.6 28390.2,40769C28390.5,40768.4 28391.4,40767.2 28392.5,40766.4C28394.1,40764.6 28394.1,40764.6 28394,40763.4C28393.8,40762.9 28393.8,40762.3 28393.9,40762.2C28394,40762.1 28394.2,40761.2 28394.4,40760.3C28394.6,40759.5 28394.7,40758.3 28394.6,40757.7C28394.7,40757.1 28394.9,40756.3 28395.1,40755.9C28395.3,40755.4 28395.4,40754.7 28395.2,40754.3C28395.1,40753.7 28395.1,40753 28395.6,40752C28396,40751.1 28396.4,40750.3 28396.6,40750.1C28396.8,40749.9 28397.2,40749.9 28397.6,40750.1C28397.9,40750.2 28398.6,40750.4 28398.9,40750.3C28399.2,40750.4 28400.1,40750.8 28400.9,40751.4C28401.7,40751.9 28402.5,40752.4 28402.7,40752.4C28402.8,40752.5 28403.5,40752.4 28404.3,40752.3C28405.3,40752 28405.9,40751.7 28407.4,40750.3C28409.1,40748.7 28409.4,40748.4 28409.4,40747.8C28409.4,40747.2 28409.6,40746.6 28409.8,40746.4C28410,40745.9 28410.2,40745.3 28410.2,40744.9C28410.2,40744 28410.2,40744 28402.4,40736.7C28398.2,40732.9 28394.4,40729.4 28394.1,40729.1C28393.7,40728.9 28393.1,40728.6 28392.8,40728.5C28392.5,40728.4 28391.7,40727.9 28391.3,40727.4C28390.7,40726.9 28390.2,40726.2 28390.1,40725.7C28389.8,40725.2 28389.5,40724.7 28389.2,40724.4C28388.9,40724.3 28387.9,40723.8 28387.1,40723.5C28385.7,40722.8 28385.6,40722.7 28384.9,40721.7C28384.3,40720.6 28384.2,40720.3 28383.5,40720.1C28382.9,40719.9 28382.5,40719.6 28382.4,40719.1C28382.1,40718.8 28381.4,40717.9 28380.8,40717.3C28380,40716.8 28377.9,40714.8 28376.1,40713.1C28374.9,40712.1 28374.1,40711.4 28373.6,40710.9C28372.5,40709.8 28372.4,40709.6 28372.2,40708.8C28372.2,40708 28371.9,40707.7 28371,40706.9C28370.2,40706.4 28369.6,40705.9 28369,40706.1C28368.3,40706 28368.1,40705.8 28363.2,40701.1C28360.4,40698.6 28357.8,40696.1 28357.4,40695.9C28356.9,40695.7 28356.4,40694.9 28355.9,40694.5C28355.5,40693.7 28355.2,40693.6 28354.5,40693.4C28354.1,40693.4 28353.2,40693 28352.6,40692.6C28351.8,40692.1 28351.4,40691.5 28350.8,40690.3C28350.1,40689.1 28349.6,40688.3 28347,40686C28344.4,40683.5 28343.8,40683.1 28342.9,40682.9C28342.2,40682.6 28341.6,40682.3 28340.4,40680.9C28339.4,40680 28338.2,40679.1 28337.7,40678.8C28337.1,40678.5 28336.4,40678.4 28336,40678.4C28335.5,40678.6 28334.8,40678.6 28334.4,40678.4C28333.7,40678.2 28333.5,40678.4 28333.1,40678.8C28333,40679.1 28332.4,40680 28331.9,40680.6C28331.3,40681.2 28330.9,40681.9 28330.8,40682.4C28330.8,40682.8 28330.6,40683.3 28330.4,40683.5C28330.2,40683.7 28330.1,40684 28330.1,40684.4C28330,40684.8 28330.1,40685.1 28330.2,40685.4C28330.4,40685.6 28330.8,40686.1 28330.9,40686.7C28331.1,40687.3 28332,40688.3 28334.4,40690.6L28338.2,40694.2C28338.6,40694.5 28341,40696.8 28343.8,40699.3C28344.9,40700.2 28345.8,40701 28346.4,40701.6C28348.4,40703.5 28348.8,40704.1 28349.1,40704.9C28349.5,40705.5 28350,40706.5 28350.4,40707.2C28350.9,40707.8 28351.2,40708.5 28351.2,40708.9C28351.2,40709.3 28351,40709.7 28350.6,40710C28350.3,40710.1 28350,40710.7 28350,40710.9C28350,40711.1 28349.6,40711.5 28349.1,40712.1C28348.5,40712.5 28348,40712.7 28347.3,40712.5C28346.9,40712.5 28345.9,40712.6 28345.3,40712.8C28344.7,40713.1 28343.6,40713.5 28342.9,40713.9C28342.1,40714.2 28341.2,40714.8 28340.8,40715C28340.5,40715.1 28339.8,40715.6 28339.4,40715.8C28339.1,40715.9 28338.2,40716.2 28337.2,40716.4C28336,40716.5 28335.7,40716.5 28334.7,40717.7C28334.3,40718.1 28333.7,40718.7 28333,40719.5C28331.5,40721.1 28330.6,40722.5 28330.6,40722.8C28330.5,40723.1 28330,40724 28329.5,40724.8C28328.8,40725.6 28328,40726.6 28327.8,40726.8C28327.5,40727.1 28327,40727.7 28326.5,40728C28325.8,40728.5 28325.7,40728.9 28325.2,40730.7C28325,40731.8 28324.6,40732.8 28324.5,40732.9C28324.3,40733.2 28324.1,40733.8 28324.1,40734.2C28324.1,40734.9 28323.9,40735.5 28323.7,40735.7C28323.5,40736 28323.4,40736.3 28323.5,40736.6C28323.5,40736.8 28323.4,40737.4 28323.1,40738C28322.6,40738.6 28322.7,40739.5 28322.7,40740.8C28322.9,40742.1 28322.8,40742.9 28322.4,40743.5C28321.9,40744.3 28321.9,40744.7 28322.1,40745.1C28322.2,40745.5 28322.5,40746 28322.9,40746.3C28323,40746.6 28323.2,40747.5 28323.1,40748.2C28323.1,40749 28323.2,40749.9 28323.4,40750.5C28323.8,40751.1 28323.9,40751.8 28323.8,40752.1C28323.7,40752.4 28323.9,40753.3 28324.2,40754.1C28324.5,40754.9 28325,40755.7 28325.2,40755.7C28325.4,40755.9 28325.6,40756.3 28325.5,40757.1C28325.6,40757.7 28325.8,40758.3 28326,40758.6C28326.2,40758.8 28326.5,40758.9 28326.9,40759C28327.1,40758.9 28327.4,40759.3 28327.5,40760.2C28327.9,40760.9 28328.3,40761.8 28328.6,40762C28329,40762.4 28329.2,40763 28329.2,40763.7C28329.4,40764.6 28329.6,40764.8 28330.3,40765.2C28330.8,40765.5 28332.4,40767.1 28334,40768.5C28336.5,40770.9 28336.8,40771.4 28337.1,40772.3C28337.3,40772.9 28337.4,40773.2 28338,40773.7C28338.3,40773.9 28338.7,40774.3 28339.3,40774.8C28340.2,40775.7 28341.4,40776.4 28341.9,40776.6C28342.5,40776.8 28343.4,40777.4 28344.4,40778.1C28345.4,40779.1 28346,40779.5 28346.8,40779.5C28347.4,40779.7 28347.9,40779.8 28348,40779.9C28348,40779.9 28348.5,40780.1 28348.9,40780.1C28349.3,40780.1 28350.3,40780.6 28350.8,40781.1C28351.7,40781.7 28352.4,40781.9 28353.3,40782C28354,40782 28354.6,40782.2 28354.9,40782.5C28355.1,40782.7 28355.8,40782.9 28356.2,40782.9C28356.8,40783 28357.6,40783.2 28358.4,40783.5C28358.9,40783.8 28359.8,40784.2 28360.1,40784.3C28360.4,40784.6 28361.3,40784.5 28362.1,40784.5C28362.9,40784.4 28364.2,40784.2 28365.1,40784.2C28365.8,40784.3 28367,40784.4 28367.3,40784.5C28367.7,40784.6 28368.1,40784.5 28368.2,40784.4C28368.3,40784.3 28369.1,40784.1 28370,40783.9C28370.8,40783.6 28371.9,40783.4 28372.1,40783.2C28372.4,40783 28373.5,40782.8 28374.4,40782.7C28376,40782.5 28376.2,40782.5 28376.9,40781.5C28377.4,40780.8 28378,40780.4 28378.9,40780.1C28379.9,40779.7 28380.2,40779.4 28381,40778.3C28381.8,40777.2 28382.4,40776.8 28383.8,40776C28384.6,40775.5 28385.9,40774.6 28386.4,40774.3C28386.9,40773.8 28387.4,40773.2 28387.5,40772.9Z" style="fill-rule:nonzero;"/>
                </g>
                <g transform="matrix(3.90569,0,0,3.90569,-82126.6,-118111)">
                    <path d="M28358.8,40722.1C28359.3,40722.2 28359.9,40722.4 28360,40722.3C28360.1,40722.2 28360.5,40722.2 28360.7,40722.2C28361.1,40722.3 28361.8,40723.3 28363,40725.2C28364,40726.9 28365.3,40729.1 28365.8,40730.2C28366.4,40731.6 28366.8,40732.6 28366.8,40733.1C28366.7,40733.7 28366.9,40734.6 28367.4,40735.4C28368,40736.4 28368.3,40737.1 28368.2,40738.2C28368.2,40739.1 28368.3,40739.9 28368.6,40740.3C28368.9,40740.6 28368.9,40741.2 28368.6,40742.4C28368.4,40743.2 28368.2,40744.4 28368,40745C28368,40745.5 28367.6,40746.4 28367.3,40746.8C28367.1,40747.3 28367.1,40747.8 28367.2,40748.1C28367.4,40748.3 28367.3,40748.8 28367.1,40749C28366.9,40749.3 28366.7,40749.6 28366.6,40749.7C28366.5,40749.5 28366.3,40750 28366,40750.4C28365.7,40750.9 28365.1,40751.6 28364.4,40752.2C28363.8,40752.6 28363,40753.4 28362.8,40753.7C28362.6,40754.1 28361.9,40754.7 28361.2,40755C28360.5,40755.4 28359.6,40756.1 28359.1,40756.5C28358.9,40756.7 28358.7,40756.9 28358.5,40757C28358.2,40757.2 28357.9,40757.2 28357.3,40757.1C28356.5,40756.9 28356.2,40757 28354.7,40757.9C28353,40758.9 28352.9,40759 28351.8,40758.6C28351.2,40758.5 28349.8,40758 28348.7,40757.6C28347.5,40757.3 28346.2,40756.5 28345.4,40756.1C28344.7,40755.5 28343.7,40754.5 28343.2,40753.6C28342.5,40752.7 28341.8,40751.4 28341.2,40750.9C28340.9,40750.2 28340.4,40749.4 28340.4,40749.2C28340.5,40749 28340.3,40748.4 28339.9,40747.8L28339.2,40746.5C28339,40746.2 28339.1,40745.7 28339.2,40745.1C28339.2,40744.5 28339.2,40743.9 28339,40743.8C28338.9,40743.7 28338.8,40743.2 28338.8,40742.7C28338.8,40742.3 28338.8,40741.8 28338.7,40741.5C28338.5,40741.3 28338.7,40740.7 28339.1,40740.1C28339.3,40739.6 28339.6,40738.6 28339.5,40737.9C28339.7,40737.3 28339.8,40736.5 28340.1,40736.2C28340.2,40735.9 28340.8,40735.4 28341.2,40735.1C28341.6,40734.9 28342.2,40734.2 28342.7,40733.6C28343.1,40733 28343.5,40732.2 28343.7,40731.7C28344,40731.2 28344.3,40730.9 28346,40730C28347.9,40729.1 28348.2,40728.9 28348.8,40727.9C28349.3,40726.7 28349.4,40726.6 28353.6,40724.2C28357.9,40721.6 28357.9,40721.6 28358.8,40722.1ZM28328.1,40695.9C28327.9,40696.1 28327.5,40696.6 28327,40696.9C28326.6,40697.1 28326,40697.8 28325.7,40698.3C28325.2,40699 28324.7,40699.5 28323.7,40699.9C28322.6,40700.5 28322.2,40700.9 28321.4,40701.9C28321,40702.7 28320.3,40703.6 28320.1,40703.9C28319.8,40704.3 28319.4,40704.8 28319.2,40705C28319,40705.1 28318.7,40705.4 28318.7,40706C28318.6,40706.4 28318.7,40707.1 28318.7,40707.4C28318.8,40707.9 28318.7,40708.4 28318.7,40708.6C28318.6,40709 28318,40709.9 28317.4,40710.6C28316.8,40711.3 28315.9,40712.2 28315.5,40712.4C28315.1,40712.6 28314.6,40712.9 28314.6,40713.1C28314.5,40713.4 28314.5,40713.7 28314.6,40714.2C28314.8,40714.4 28314.8,40715 28314.4,40715.3C28314.2,40715.8 28314,40716.3 28313.9,40716.5L28314.1,40716.9C28314.4,40716.9 28314.5,40717.7 28314.5,40718.6C28314.4,40720 28314.5,40720.5 28315.3,40721.5C28315.7,40722.2 28316.4,40722.7 28316.8,40722.8C28317.1,40723 28317.8,40723.1 28318.3,40723C28318.8,40722.9 28319.3,40722.6 28319.7,40722.4C28319.8,40722.1 28320.7,40721.4 28321.5,40721.1C28322.6,40720.5 28322.9,40720.1 28323.3,40719.3C28323.7,40718.8 28323.9,40717.7 28324.1,40717.1C28324.2,40716.5 28324.4,40715.6 28324.4,40715C28324.4,40714.7 28324.2,40713.5 28324.1,40712.7C28323.8,40711.7 28323.8,40710.8 28324.1,40709.2C28324.7,40707.2 28324.8,40707.1 28325.6,40706.8C28326.5,40706.4 28326.8,40706.3 28327,40705.5C28327.1,40704.8 28327.2,40704.4 28327.4,40704.3C28327.5,40704.3 28328.7,40703.6 28329.9,40702.7C28331.8,40701.5 28332.4,40700.8 28332.9,40700.2C28333.4,40699.4 28333.9,40698.9 28334.9,40698.5C28335.8,40698 28336.4,40697.8 28336.9,40698C28337.1,40698.1 28338.2,40698.1 28339,40698C28339.8,40697.9 28340.5,40697.8 28340.6,40697.7C28340.7,40697.7 28341.5,40697.8 28342.1,40697.9C28342.6,40697.9 28343.2,40698.1 28343.5,40697.9C28343.6,40697.9 28344,40697.8 28344.4,40698C28344.8,40698.1 28345,40698.3 28345,40698.7C28344.9,40698.9 28345,40699.3 28345.2,40699.7C28345.4,40700 28345.8,40700.3 28346.1,40700.3C28346.4,40700.4 28346.9,40700.7 28347.1,40701.1C28347.5,40701.4 28348.3,40702.1 28348.9,40702.6C28350,40703.4 28350.2,40703.6 28352.7,40707.9C28355.4,40712.4 28355.4,40712.4 28354.9,40713.7C28354.5,40714.8 28354.5,40714.8 28349.8,40717.7C28345.6,40720.3 28345,40720.6 28344.4,40721.6C28343.9,40722.3 28343.4,40722.8 28342.5,40723.4C28341.6,40723.9 28340.9,40724.5 28340.8,40724.9C28340.5,40725.4 28339.8,40726 28338.9,40726.5C28337.9,40727.1 28337.4,40727.8 28337.2,40728.1C28337.2,40728.4 28336.7,40729.1 28336.3,40729.5C28335.8,40729.9 28335.5,40730.5 28335.4,40730.7C28335.5,40730.8 28335.1,40731.1 28334.9,40731.2C28334.5,40731.4 28334.1,40732 28333.9,40732.6C28333.7,40733.1 28333.3,40733.7 28332.8,40734C28332.4,40734.2 28331.6,40735.4 28330.7,40736.6C28329.6,40738.5 28329.2,40739.1 28329.1,40740.7L28328.9,40743.6C28329,40744.1 28328.9,40744.7 28328.6,40745.2C28328.3,40745.6 28328.3,40745.9 28328.7,40746.2C28328.9,40746.5 28329,40746.9 28328.8,40747.6C28328.7,40748 28328.7,40748.5 28328.7,40748.6C28328.9,40748.9 28329,40749.4 28329,40749.9C28328.9,40750.4 28329.1,40751.4 28329.5,40752C28329.8,40752.8 28329.9,40753.6 28329.8,40753.8C28329.9,40754.1 28330.5,40755.5 28332.2,40758.3C28334.5,40762.2 28334.6,40762.3 28335.6,40762.9C28336.2,40763.3 28336.7,40763.7 28336.9,40763.9C28337,40764 28337.6,40764.5 28338.3,40765C28339,40765.5 28340.4,40766 28341.3,40766.4C28342.4,40766.6 28343.5,40767 28343.8,40767.3C28344.2,40767.7 28345.2,40767.9 28346,40768C28346.7,40768.1 28347.7,40768.3 28348,40768.5C28348.4,40768.6 28349.3,40768.8 28349.9,40768.8C28350.6,40768.8 28351.6,40768.7 28352,40768.8C28352.6,40768.9 28353.2,40768.8 28354.1,40768.2C28354.9,40768 28356,40767.5 28356.5,40767.5C28357.3,40767.5 28357.7,40767.4 28358.7,40766.9C28359.2,40766.6 28359.8,40766.1 28360.8,40765.5C28361.3,40765.2 28361.9,40764.8 28362.4,40764.5C28363.7,40763.8 28364.8,40763.2 28365.5,40762.9C28366,40762.7 28366.4,40762.6 28366.6,40762.4C28367.1,40762.2 28367.2,40761.9 28367.4,40761.4C28367.5,40761 28368,40760.4 28368.3,40759.9C28368.6,40759.5 28368.8,40759 28368.7,40758.9C28368.8,40758.7 28369,40758.4 28369.1,40758.3C28369.3,40758.2 28369.7,40757.6 28369.9,40757C28369.9,40756.5 28370.1,40755.8 28370.2,40755.8C28370.3,40755.7 28370.7,40755.1 28371,40754.6C28371.3,40753.9 28371.7,40753 28371.7,40752.8C28371.7,40752.4 28371.9,40751.6 28372.3,40751C28372.7,40750.3 28373.2,40749.6 28374,40749.2C28374.6,40748.8 28375.6,40748.4 28376,40748.1C28376.5,40748 28377,40748.1 28377.4,40748.4C28377.8,40748.6 28378.5,40749.4 28379,40750C28379.6,40750.9 28380.2,40751.4 28380.6,40751.5C28381.3,40751.8 28381.9,40751.6 28383.3,40751C28384.5,40750.4 28385.3,40749.8 28386.7,40748.5C28387.6,40747.6 28388.6,40746.6 28388.8,40746.4C28389.2,40745.9 28389,40745.7 28388.3,40744.4C28387.9,40743.5 28387.5,40742.7 28387.3,40742.5C28387,40742.3 28386.2,40740.9 28385.2,40739.4C28384.3,40738 28383.3,40736.5 28383,40736.3C28382.6,40736 28382,40735.5 28381.5,40734.9C28381,40734.3 28380,40732.8 28378.2,40729.7C28377.4,40728.5 28376.5,40727 28375.5,40725.2C28372.8,40720.3 28370.4,40716.2 28370.1,40715.6L28368.1,40712.4C28366.8,40710.4 28366.6,40709.8 28366.6,40709.1C28366.7,40708.7 28366.5,40708.1 28366.3,40707.9C28366.2,40707.6 28365.8,40707.3 28365.3,40707.1C28364.6,40706.8 28364.3,40706.1 28361.6,40701.6C28360.7,40700 28360.1,40698.9 28359.6,40698.1C28358.7,40696.5 28358.3,40696.2 28357.7,40696C28357.4,40695.7 28356.7,40695.2 28356.6,40694.9C28356.4,40694.5 28355.8,40694.2 28355.3,40693.9C28354.6,40693.7 28354,40693.3 28353.9,40693C28353.7,40692.8 28353,40692.4 28352.1,40692.1C28351.3,40691.9 28350.6,40691.6 28350.5,40691.5C28350.5,40691.4 28349.9,40691 28349.2,40690.9C28348.5,40690.8 28347.7,40690.6 28347.3,40690.3C28346.9,40690.1 28346.3,40690.2 28345.9,40690.2C28345.3,40690.4 28344.7,40690.4 28344.1,40690.1C28343.4,40689.8 28342.7,40689.8 28342.5,40690C28342.2,40690.1 28341.7,40690.1 28341.1,40690.1C28340.7,40690 28340.1,40690.2 28339.9,40690.3C28339.5,40690.5 28338.8,40690.6 28338.3,40690.7C28337.6,40690.6 28336.6,40691.2 28333.6,40692.8C28331.7,40693.9 28329.7,40695.1 28329.3,40695.2C28329.1,40695.2 28329,40695.3 28328.8,40695.4C28328.5,40695.5 28328.3,40695.8 28328.1,40695.9Z" style="fill-rule:nonzero;"/>
                </g>
                <g transform="matrix(3.90569,0,0,3.90569,-82126.6,-118111)">
                    <path d="M28341.8,40785.6C28342.5,40785.4 28343.5,40784.9 28343.5,40784.6C28343.8,40784.3 28344.2,40784 28344.4,40783.7C28344.9,40783.6 28345.2,40782.4 28346.9,40777.2L28352.6,40757C28353.7,40753.2 28354.1,40751.9 28354.6,40751.1C28354.9,40750.7 28355.1,40750.4 28355.2,40750.2C28355.3,40750 28355.2,40749.7 28355,40749.3C28354.7,40748.6 28354.8,40748.2 28355.6,40746.1C28356.1,40744.8 28356.5,40743.2 28356.7,40742.8C28356.8,40742.3 28357.6,40739.6 28358.2,40736.7C28359.5,40732.2 28359.8,40731.3 28360.2,40731C28360.5,40730.7 28360.6,40730.6 28360.7,40730.4C28360.8,40730.1 28360.7,40729.9 28360.6,40729.4C28360.6,40728.6 28360.6,40727.8 28361.2,40726.4C28361.6,40725.4 28361.9,40724.4 28362,40724.1L28362.8,40721.4C28363.3,40719.5 28363.4,40718.7 28363.2,40717.6C28363,40716.3 28362.7,40715.9 28361.6,40714.9C28360.8,40714.1 28360.1,40713.7 28359.2,40713.5C28358.6,40713.3 28357.6,40713.2 28356.8,40713.1C28356.2,40713.1 28355.3,40713.3 28355.2,40713.4C28354.8,40713.6 28354.3,40714.9 28353.3,40718.2C28352.2,40722.1 28352,40722.8 28351.5,40723C28351.1,40723.4 28350.7,40724 28350.4,40725.1C28350,40726.2 28350,40726.6 28350.2,40727.2C28350.4,40727.4 28350.5,40728.1 28350.6,40728.4C28350.7,40728.7 28350.7,40729 28350.5,40729.1C28350.5,40729.3 28349.8,40731.1 28349,40733.4C28348.1,40736.4 28347.6,40737.7 28347.2,40738.2C28346.8,40738.6 28346.4,40739.4 28346.1,40740.4C28345.8,40741.3 28345.7,40742.2 28345.9,40742.8C28346,40743.4 28345.8,40744.6 28345.7,40745.5C28345.3,40746.9 28345.2,40747.2 28344.5,40747.6C28344,40747.8 28343.5,40748.3 28343.4,40748.6C28343.4,40748.9 28343.4,40749.7 28343.4,40750.3C28343.5,40751.1 28343.4,40752 28343.4,40752.6C28343.2,40753.2 28342.8,40755.4 28342.2,40757.4C28341.3,40760.6 28341,40761.5 28340.4,40762.4C28340,40762.9 28339.4,40763.8 28339.1,40764.2C28339,40764.8 28338.8,40765.4 28338.9,40765.6C28339,40765.8 28339,40766.5 28338.9,40767.2C28338.8,40767.7 28338.5,40769.4 28338.4,40770.6C28338.2,40771.9 28338.1,40773.5 28338.2,40774C28338.4,40774.7 28338.4,40775.3 28338,40776C28337.7,40776.3 28337.4,40777 28337.1,40777.1C28336.6,40777.4 28336.3,40778 28336,40779.6C28335.7,40780.8 28335.7,40782 28335.7,40782.5C28335.7,40783 28336,40783.5 28336.3,40783.8C28336.5,40784 28336.9,40784.1 28337.4,40784.2C28337.7,40784.3 28338.3,40784.8 28338.8,40785.3C28339.4,40785.8 28340,40786.1 28340.1,40786.1C28340.3,40786.1 28340.9,40786 28341.8,40785.6ZM28327.9,40817.5C28328.4,40817.5 28329.2,40817.4 28329.5,40817.3C28330,40817.3 28331.1,40817.5 28331.8,40817.7C28332.6,40817.9 28333.4,40818 28334.9,40817.8C28336.5,40817.5 28337,40817.3 28337.7,40816.6C28338.1,40815.9 28338.7,40815.3 28339,40815.2C28339.3,40815 28339.4,40814.8 28339.4,40814.6C28339.5,40814.4 28339.5,40814.1 28339.4,40813.4C28339.3,40812.8 28339.3,40811.7 28339.5,40810.9C28339.8,40809.6 28339.9,40809.5 28339.1,40808.3C28338.5,40807.1 28338.5,40807.1 28336.8,40806.7C28335.3,40806.5 28335,40806.4 28334,40805.5C28333.3,40804.7 28332.7,40804.5 28332,40804.3C28331.4,40804.3 28330.1,40804.4 28329.3,40804.5C28328.3,40804.6 28327.7,40804.9 28327.6,40805.2C28327.6,40805.5 28327.1,40806 28326.6,40806.3C28326,40806.8 28325.7,40807 28325.5,40807.9C28325.3,40808.6 28325.2,40809.5 28325,40810C28324.9,40810.4 28324.5,40811.4 28324.1,40812.2C28324,40812.5 28323.9,40812.8 28323.8,40813C28323.6,40813.6 28323.7,40814 28323.7,40814.6C28324,40815.5 28324.2,40815.7 28324.6,40815.8C28325.1,40815.9 28325.4,40816.3 28325.6,40816.7C28325.8,40817.1 28326.2,40817.4 28326.5,40817.4C28326.8,40817.5 28327.4,40817.5 28327.9,40817.5Z" style="fill-rule:nonzero;"/>
                </g>
                <g transform="matrix(3.90569,0,0,3.90569,-82126.6,-118111)">
                    <path d="M28388.4,40716.8C28388.5,40717.1 28388.7,40717.9 28389,40718.6C28389.3,40719.1 28389.5,40720.1 28389.5,40720.7C28389.6,40721.2 28389.8,40721.8 28390,40722C28390.2,40722.3 28390.2,40723.2 28390.1,40724.3C28389.9,40725.3 28390,40726.4 28390.2,40726.9C28390.4,40727.1 28390.4,40728.1 28390.2,40728.8C28390.1,40729.4 28390,40730.5 28390,40730.8C28390.1,40731.4 28390,40732 28389.7,40732.4C28389.4,40732.9 28389.1,40733.8 28389,40734.5C28389,40735.3 28388.7,40735.9 28388.4,40736.1C28388.3,40736.2 28388,40736.8 28388,40737.4C28387.7,40738 28387.3,40738.7 28386.9,40739C28386.6,40739.3 28386.2,40740 28386.1,40740.4C28385.8,40741 28385.6,40741.4 28385,40741.9L28383.3,40743.2C28383,40743.5 28382.6,40744 28382.5,40744.4C28382.5,40744.6 28382.3,40745.1 28382,40745.4C28381.6,40745.7 28381.1,40746.2 28380.7,40746.7C28380.5,40747 28380.3,40747.2 28380.1,40747.3C28379.8,40747.6 28379.5,40747.8 28378.9,40748C28377.6,40748.4 28377.4,40748.6 28376.8,40749.5C28376.1,40750.2 28375.2,40751.1 28374,40752C28372.7,40752.8 28371.3,40754 28370.6,40754.5L28368.2,40756.4C28367.7,40757 28366.4,40757.8 28365.5,40758.3C28364.6,40758.8 28363.7,40759.4 28363.4,40759.2C28363.2,40759.2 28362.5,40759.6 28361.8,40759.9C28361.1,40760.2 28360.5,40760.5 28360.2,40760.4C28359.9,40760.2 28359.5,40760.4 28359.2,40760.4C28358.9,40760.6 28358.5,40760.8 28357.9,40760.8C28357.5,40760.8 28357.1,40760.9 28357,40761C28356.8,40761.1 28356.2,40761.3 28355.5,40761.4C28354.7,40761.6 28353.4,40761.7 28352.7,40761.7C28351.9,40761.7 28350.9,40761.6 28350.5,40761.3C28350,40761.2 28349.5,40760.8 28349.5,40760.6C28349.4,40760.4 28348.6,40760.1 28347.5,40760.2C28346.2,40760.1 28345.5,40759.9 28345.2,40759.5C28345,40759.3 28344.5,40759.1 28344.1,40759.1C28343.7,40759 28343.2,40758.6 28342.2,40757.7C28341.5,40756.9 28340.5,40755.6 28339.8,40754.8C28339.2,40754 28338.5,40753.4 28338,40753C28337.6,40752.9 28336.7,40752.3 28336.3,40751.8C28336,40751.5 28335.8,40751.3 28335.6,40751.1C28335.3,40750.7 28335.1,40750.3 28335,40749.7C28334.9,40749.1 28334.4,40747.9 28334,40747.1C28333.5,40746.3 28333.1,40745.3 28333,40745C28333.1,40744.6 28332.9,40743.8 28332.7,40743.5C28332.4,40743.2 28332,40742 28331.9,40740.6C28331.7,40739.4 28331.7,40738 28331.9,40737.7C28332,40737.4 28332,40736.4 28331.9,40735.7C28331.8,40734.7 28332,40734.1 28332.5,40733.3C28332.9,40732.6 28333.3,40731.4 28333.4,40730.6C28333.4,40729.6 28333.7,40728.8 28333.8,40728.7C28333.9,40728.6 28334.2,40728.2 28334.6,40727.9C28334.9,40727.6 28335.2,40727 28335.2,40726.6C28335.3,40726 28335.8,40725.6 28338.1,40723.6C28339.5,40722.3 28340.7,40721.2 28341,40720.8C28341,40720.3 28341.9,40719.7 28342.7,40719C28343.5,40718.4 28344.4,40717.8 28344.8,40717.8C28345.2,40717.6 28345.7,40717.2 28346.5,40716.3C28347.3,40715.2 28348.2,40714.3 28350.6,40712.5C28352.3,40711.3 28354.3,40709.7 28355,40709.1C28355.9,40708.3 28356.8,40707.8 28357.3,40707.7C28357.9,40707.5 28358.9,40707 28359.6,40706.5C28360.5,40706 28361.2,40705.8 28361.6,40705.9C28362.1,40705.9 28362.6,40705.7 28363,40705.4C28363.3,40705.1 28364.1,40704.9 28364.7,40705C28365.4,40704.8 28366.1,40704.7 28366.2,40704.6C28366.4,40704.4 28367.3,40704.3 28368.1,40704.4C28369,40704.5 28370,40704.3 28370.3,40704.2C28370.5,40704 28371.5,40704 28372.2,40704C28373.1,40704.1 28374.4,40704.6 28375.2,40705.1C28376,40705.5 28377.1,40706.1 28377.6,40706.5C28378.2,40707 28378.9,40707.2 28379.6,40707.3C28380.3,40707.2 28380.4,40707.4 28380.8,40708.1C28381.2,40708.6 28381.4,40708.9 28382,40709C28382.5,40709 28383.1,40709.6 28383.8,40710.2C28384.1,40710.5 28384.6,40711 28385.1,40711.6C28385.5,40712.2 28386.1,40713 28386.5,40713.7C28387.8,40715.3 28388.4,40716.2 28388.4,40716.8ZM28436.4,40713.3C28436.2,40713.3 28435.2,40712.3 28434.5,40711.2C28432.9,40709.2 28432.8,40709 28431.5,40708.6C28430,40708.2 28429.8,40708.1 28429.1,40708.7C28428.4,40709.3 28428.2,40709.2 28427.7,40709.1C28426.9,40708.8 28426.8,40708.8 28424.6,40710.3C28422.7,40711.7 28422.4,40711.9 28421.8,40713.1C28421.5,40714.1 28421.1,40714.6 28420.4,40715C28420.1,40715.2 28418.8,40715.8 28417.9,40716.4C28416.8,40716.9 28415.5,40717.7 28414.7,40718.1C28413.9,40718.8 28413.1,40719.5 28412.6,40720.5C28411.9,40721.6 28411.2,40722.4 28408.6,40724.5C28407,40725.9 28405.4,40727 28405.3,40727.1C28405.1,40727 28404.1,40727.8 28403,40728.8C28401.9,40729.9 28400.9,40730.7 28400.5,40730.8C28400.2,40730.9 28399.7,40731.2 28399.5,40731.6C28399.2,40732 28398.5,40732.6 28397.9,40733C28397.2,40733.4 28396.5,40733.7 28396.3,40733.7C28396.1,40733.7 28395.4,40733.1 28394.8,40732C28393.7,40730.6 28393.7,40730.6 28394,40728.1C28394.3,40726.7 28394.7,40725 28394.9,40724.5C28395.2,40723.9 28395.4,40723.3 28395.4,40723C28395.3,40722.7 28395.6,40722.3 28395.8,40722.1C28395.9,40722 28396.1,40721.5 28396.2,40721.2C28396.4,40720.6 28396.2,40720.2 28396,40719.8C28395.7,40719.5 28395.6,40718.9 28395.7,40718.7C28395.8,40718.4 28395.7,40717.8 28395.5,40717.3C28395.4,40716.7 28395.1,40716.1 28394.8,40715.7C28394.7,40715.5 28394.4,40714.7 28394.4,40714.2C28394.4,40713.2 28394.2,40712.8 28393.3,40711.6C28392.4,40710.4 28392.2,40710.2 28392.3,40709.1C28392.3,40708.4 28392.2,40707.7 28392.1,40707.6C28391.9,40707.3 28391.2,40706.7 28390.4,40706C28389.8,40705.4 28388.9,40704.7 28388.4,40704.6C28387.9,40704.5 28387.3,40704.2 28387.1,40703.9C28387,40703.5 28386.1,40702.4 28385.2,40701.3C28383.8,40699.2 28383.7,40699.1 28382.9,40699.1C28382.2,40699.1 28382,40698.9 28381.3,40698C28380.9,40697.5 28380.4,40697.1 28380.2,40697.2C28380,40697.1 28379.2,40696.8 28378.3,40696.4C28377.4,40696 28376,40695.4 28375.4,40695.1C28374.7,40694.8 28373.7,40694.7 28373.2,40694.8C28372.7,40694.9 28372.3,40694.8 28372.1,40694.6C28371.8,40694.2 28371.2,40693.7 28370.6,40693.4C28369.9,40693.2 28369.4,40693.1 28369.1,40693.3C28368.9,40693.5 28368.2,40693.5 28367.3,40693.6C28366.5,40693.6 28365.8,40693.8 28365.6,40693.9C28365.5,40694 28364.8,40694 28363.9,40693.9C28363.2,40693.7 28362.3,40693.8 28362.1,40694C28361.8,40694.2 28361.2,40694.3 28360.9,40694.4C28360.2,40694.3 28359.7,40694.6 28358.9,40695.2C28358.2,40695.7 28357.7,40696 28357.1,40696C28356.6,40696 28356,40696.1 28355.6,40696.3C28355.2,40696.5 28354.7,40696.4 28354.2,40696.2C28353.4,40695.7 28353.3,40695.8 28351.7,40696.6C28350.4,40697.2 28349.6,40697.9 28348.6,40699.1C28347.2,40700.4 28346.9,40700.6 28345.8,40700.9C28344.6,40701 28344,40701.5 28339.5,40704.9C28336.7,40707.1 28333.7,40709.3 28332.9,40709.9C28331.6,40710.9 28331.3,40711.3 28331.1,40712.1C28331,40712.5 28330.6,40713.2 28329.9,40714C28329.1,40714.6 28328.6,40715.4 28328.4,40715.7C28328.3,40716 28327.6,40716.7 28327.1,40717.2C28326.5,40717.6 28326,40718.2 28325.9,40718.8C28325.8,40719.3 28325.6,40719.7 28325.5,40719.8C28325.3,40719.8 28325.1,40720.8 28325,40721.8C28324.8,40722.8 28324.2,40724.5 28323.8,40725.7C28323,40727.4 28322.9,40727.9 28323.1,40728.5C28323.3,40728.7 28323.4,40729.8 28323.2,40730.9C28323,40732 28322.6,40733.1 28322.4,40733.4C28322.2,40733.8 28321.9,40734.6 28321.8,40735.3C28321.6,40736.2 28321.7,40736.9 28321.9,40737.4C28322.2,40738 28322.3,40738.7 28322.2,40739C28322.2,40739.2 28322.2,40739.9 28322.5,40740.6C28322.7,40741.3 28323.2,40742.2 28323.4,40742.6C28323.6,40743.2 28323.8,40743.9 28323.7,40744.3C28323.6,40744.9 28323.7,40745.3 28323.9,40745.5C28324.1,40745.5 28324.3,40746.1 28324.4,40746.6C28324.5,40747.5 28324.7,40747.9 28326.7,40750.3C28328.8,40752.9 28329,40753.2 28328.9,40754.1C28329,40754.7 28329,40755.2 28329.2,40755.5C28329.3,40755.6 28330,40756 28330.6,40756.3C28331.7,40756.6 28332.2,40757.1 28333,40758.1C28333.7,40759 28334.2,40759.4 28335.4,40760C28336.3,40760.3 28337.4,40760.7 28338,40760.8C28338.5,40761 28339.1,40761.3 28339.4,40761.6C28339.9,40762.2 28340.3,40762.5 28341.3,40762.6C28342.1,40762.6 28342.8,40763 28343,40763.2C28343.2,40763.5 28343.6,40763.5 28344,40763.3C28344.4,40763.3 28344.7,40763.2 28344.8,40763.3C28344.9,40763.4 28345.2,40763.6 28345.4,40763.8C28345.6,40764.2 28346,40764.4 28346.4,40764.4C28346.7,40764.5 28347.7,40764.9 28348.5,40765.2C28349.9,40766 28350.1,40766 28350.5,40766.9C28350.6,40767.6 28350.8,40768.3 28350.7,40769C28350.8,40769.5 28350.4,40770.2 28349.8,40770.9C28349.1,40771.8 28348.7,40772.5 28348.6,40773.3C28348.5,40774.2 28348.4,40775.2 28348.6,40775.8C28348.8,40776.7 28349.2,40777.2 28349.9,40778.1C28350.4,40778.8 28351.1,40779.4 28351.4,40779.5C28351.6,40779.6 28352.2,40779.9 28352.7,40780.2C28353.2,40780.6 28353.9,40781 28354.4,40781.2C28355.1,40781.3 28355.5,40781.1 28356.5,40780.5C28356.9,40780.2 28357.2,40780.1 28357.4,40779.9C28357.9,40779.5 28358.1,40779.2 28358.3,40778.6C28358.5,40777.9 28358.6,40777.6 28360.5,40776.2C28361.4,40775.4 28362.8,40774.4 28364.9,40772.8L28384.1,40757.6C28386.8,40755.5 28388.9,40753.8 28390.6,40752.5C28395.4,40748.7 28396.1,40748.4 28396.6,40748.4C28396.9,40748.4 28397.5,40748.3 28397.7,40748.1C28398.1,40747.8 28398.4,40747.2 28398.5,40746.9C28398.7,40746.2 28399.4,40745.6 28404.3,40741.8L28417.4,40731.5C28419.6,40729.7 28421.1,40728.5 28422.1,40727.7C28424.2,40726 28424.6,40725.9 28425.1,40726C28425.9,40726 28426.3,40725.6 28428.2,40724.1C28428.7,40723.8 28429.1,40723.5 28429.4,40723.3C28430.4,40722.5 28430.9,40721.9 28431.4,40721.3C28431.9,40720.5 28432.8,40719.4 28433.8,40718.6L28436.1,40716.8C28436.6,40716.5 28436.8,40715.8 28436.9,40715.2C28437.1,40714.5 28437,40713.8 28436.9,40713.7C28436.8,40713.6 28436.5,40713.4 28436.4,40713.3Z" style="fill-rule:nonzero;"/>
                </g>
            </g>
            <g transform="matrix(1.76244,0,0,1.25167,-29663.7,-62559.1)">
                <rect x="17010.9" y="50072" width="128.168" height="128.168" style="fill:none;"/>
            </g>
        </g>
    </g>
</svg>
